M48
;FILE_FORMAT=2:4
INCH,LZ
FMAT,2
ICI,OFF
;TYPE=PLATED
T1C.012
T2C.016
T3C.02
T4C.02372
T6C.02756
T7C.03543
;TYPE=NON_PLATED
T5C.02372
%
M72
G90
G93X0Y0
T1C.012F095S3
X020914Y016034
X021846Y016324
X02006Y016903
X020686Y018043
X020617Y018439
X020751Y018789
X021231Y018791
X021562Y018802
X021734Y019313
X020154Y019716
X020656Y019752
X02114Y019756
X020854Y020141
X020041Y02052
X019446Y020567
X01985Y020859
X019467Y021043
X020179Y021174
X020964Y021214
X021793Y021267
X02035Y021467
X020525Y021665
X020342Y021897
X02052Y022102
X020058Y022191
X020004Y022492
X021796Y022731
X019857Y022763
X021798Y023044
X021529Y023095
X020318Y023211
X020324Y02349
X020936Y023781
X02089Y025356
X021075Y025583
X020485Y025917
X021037Y026224
X020967Y026634
X020459Y026706
X021016Y027046
X020517Y027222
X020965Y027541
X020536Y027897
X019419Y028361
X019832Y02837
X021413Y028698
X021247Y028901
X019447Y028935
X021162Y029156
X021664Y029231
X019828Y029448
X021163Y029516
X021664Y029654
X019418Y029936
X021274Y029992
X021884Y030104
X019794Y03029
X021412Y030637
X021128Y03064
X020534Y030779
X019842Y030945
X021351Y031113
X021479Y031525
X020966Y031527
X021318Y031938
X021876Y032521
X021869Y034058
X022453Y033632
X023475Y033521
X024081Y033492
X022845Y033268
X024378Y032896
X022741Y032864
X023082Y03247
X022389Y03247
X02305Y031954
X023264Y031744
X022777Y031446
X023121Y031038
X021918Y0307
X022642Y030662
X022967Y0304
X022086Y030304
X022638Y030057
X022958Y02991
X0227Y029181
X023241Y029165
X02251Y02816
X024157Y02813
X023775Y028099
X022723Y027959
X02303Y027544
X023318Y027487
X024314Y02745
X022957Y0272
X023271Y026803
X024161Y026632
X022653Y026523
X024161Y026144
X023046Y026055
X024162Y025733
X023396Y023574
X022493Y023531
X023339Y023247
X022761Y023007
X023847Y022589
X02362Y022389
X022066Y021255
X022085Y020812
X022893Y020796
X024283Y02074
X023995Y020673
X023683Y020663
X02334Y019967
X022005Y01986
X023314Y019667
X023296Y018628
X022958Y018614
X022885Y017804
X023453Y017779
X023904Y017768
X022322Y016632
X024694Y017187
X025486Y017201
X026892Y018902
X026423Y018905
X024735Y019081
X024995Y019096
X026495Y019255
X02657Y019547
X024737Y019839
X025391Y019939
X024796Y020488
X025599Y020496
X025056Y020496
X026541Y020497
X025329Y020499
X024541Y020624
X025474Y021644
X02497Y021647
X026007Y021651
X02654Y021662
X024973Y022122
X025492Y02213
X026003Y02214
X026551Y022151
X024973Y022529
X026007Y022536
X026551Y022539
X025481Y022539
X024966Y023214
X026542Y023216
X025993Y023216
X02547Y023218
X024463Y023855
X02517Y024218
X026913Y024689
X026915Y025095
X024466Y025346
X02581Y025505
X025175Y025745
X025442Y025753
X026265Y025949
X025645Y026182
X024506Y026203
X024899Y02644
X024615Y027062
X025417Y027115
X025148Y027483
X024736Y027618
X02457Y027885
X026511Y028056
X02559Y028056
X026033Y028059
X024526Y028145
X025583Y029133
X026047Y029133
X02653Y029137
X025579Y029518
X026522Y029525
X026033Y029529
X025112Y029914
X024864Y030088
X025056Y030358
X02635Y031422
X026053Y031699
X02638Y031722
X024834Y031737
X026388Y032499
X02477Y032893
X026535Y032964
X02608Y033071
X026319Y033485
X024665Y033494
X026934Y033471
X027437Y033467
X027048Y03299
X027411Y032854
X028684Y031917
X028968Y031907
X02811Y031897
X027822Y031859
X027234Y031639
X028688Y031231
X027473Y029869
X027723Y029866
X027991Y029861
X029322Y029533
X026979Y029525
X02927Y029148
X026976Y029137
X02792Y0289
X027992Y028648
X026983Y028063
X02813Y027691
X02749Y027631
X027791Y02747
X029263Y027232
X028036Y027199
X027597Y027152
X029254Y026302
X028072Y025658
X0277Y025641
X026954Y025606
X027329Y025582
X027386Y024844
X028342Y024779
X029259Y024651
X028579Y024639
X027196Y024635
X027032Y024428
X028276Y024169
X028006Y024144
X027775Y024049
X028623Y023742
X027685Y023263
X028055Y022999
X027829Y022831
X027709Y021996
X027893Y021785
X029207Y021783
X027725Y021583
X029396Y021571
X027885Y021356
X029214Y021354
X027721Y021135
X028584Y021121
X027222Y020973
X028588Y020858
X027838Y020669
X029194Y02044
X02771Y020266
X029143Y019893
X027054Y019543
X02745Y019521
X029149Y019229
X027299Y019135
X028632Y018261
X029104Y018179
X027589Y017996
X028226Y016452
X028747Y016194
X029971Y017893
X030255Y018106
X029982Y018337
X030419Y018476
X029975Y018737
X030606Y018832
X03006Y019022
X030958Y019056
X030393Y019147
X030639Y020002
X030261Y021078
X029465Y021844
X030294Y023752
X029951Y025995
X029939Y026269
X029939Y026548
X031038Y026631
X029959Y026831
X030288Y026868
X029694Y027165
X030337Y027176
X029428Y027436
X029955Y027893
X029442Y028417
X029611Y029165
X030747Y029165
X029565Y03027
X030811Y030348
X030408Y031496
X030898Y031527
X030438Y031886
X030036Y032132
X030338Y032405
T2C.016F095S3
X024138Y018724
X019805Y018864
X023668Y019717
X024036Y019723
X020452Y020494
X023203Y020499
X020454Y020794
X022739Y023847
X022697Y027551
X020165Y029971
X020157Y030312
X021833Y033703
X028254Y032735
X027818Y032729
X029188Y031045
X02761Y030387
X029009Y030142
X029021Y029758
X029022Y029446
X029222Y02398
X028298Y023805
X028336Y020212
X028331Y019912
X027317Y019908
X025595Y019667
X02609Y01917
X028803Y018883
X024438Y018728
X028803Y018541
X030215Y024896
X02999Y0313
X029984Y031601
T3C.02F197S55
X021431Y017282
X021083Y017629
X021083Y032762
X021431Y033109
X028843Y033069
X029191Y032722
X029351Y017549
X029003Y017202
T4C.02372F197S55
X025921Y01775
T5C.02372F197S55
X024347Y01775
T6C.02756F197S55
X019506Y021549
X019506Y022337
X019506Y023124
X019506Y023911
X019506Y024699
X019506Y025486
X019506Y026274
X019506Y027061
X030851Y027061
X030851Y026274
X030851Y025486
X030851Y024699
X030851Y023911
X030851Y023124
X030851Y022337
X030851Y021549
T7C.03543F197S55
X031057Y019575
X031057Y020575
M30
