*
*
G04 PADS VX.2 Build Number: 5060570 generated Gerber (RS-274-X) file*
G04 PC Version=2.1*
*
%IN "Sky_Master_v4.3.pcb"*%
*
%MOIN*%
*
%FSLAX35Y35*%
*
*
*
*
G04 PC Standard Apertures*
*
*
G04 Thermal Relief Aperture macro.*
%AMTER*
1,1,$1,0,0*
1,0,$1-$2,0,0*
21,0,$3,$4,0,0,45*
21,0,$3,$4,0,0,135*
%
*
*
G04 Annular Aperture macro.*
%AMANN*
1,1,$1,0,0*
1,0,$2,0,0*
%
*
*
G04 Odd Aperture macro.*
%AMODD*
1,1,$1,0,0*
1,0,$1-0.005,0,0*
%
*
*
G04 PC Custom Aperture Macros*
*
*
*
*
*
*
G04 PC Aperture Table*
*
%ADD010C,0.001*%
%ADD108C,0.0365*%
%ADD115R,0.05224X0.05224*%
%ADD116C,0.05224*%
%ADD143R,0.065X0.065*%
%ADD144C,0.065*%
%ADD148C,0.02872*%
*
*
*
*
G04 PC Circuitry*
G04 Layer Name Sky_Master_v4.3.pcb - circuitry*
%LPD*%
*
*
G04 PC Custom Flashes*
G04 Layer Name Sky_Master_v4.3.pcb - flashes*
%LPD*%
*
*
G04 PC Circuitry*
G04 Layer Name Sky_Master_v4.3.pcb - circuitry*
%LPD*%
*
G54D10*
G01X188679Y336222D02*
X192558Y334282D01*
X193613Y333693*
X194402Y333098*
X195427Y332113*
X195427D02*
X196175Y331190D01*
X196777Y330194*
X197275Y329138*
X197649Y327978*
X197813Y327315*
X197898Y326653*
X197958Y325796*
Y325084*
X197868Y324118*
X197724Y323371*
X197490Y322504*
X197186Y321688*
X196847Y320961*
X196324Y320069*
X195771Y319312*
X195229Y318709*
X194435Y317965*
X193831Y317511*
X193203Y317095*
X192388Y316620*
X191644Y316102*
X190974Y315528*
X190365Y314914*
X189682Y314066*
X189332Y313542*
X188991Y312944*
X188649Y312251*
X188397Y311588*
X188397D02*
X188209Y311013D01*
X188082Y310502*
X187944Y309776*
X187865Y309138*
X187863Y308752*
Y195152*
X187866Y194869*
X187875Y194341*
X187949Y193612*
X188066Y193063*
X188260Y192322*
X188513Y191599*
X188878Y190778*
X189264Y190067*
X189739Y189368*
X190232Y188750*
X190878Y188059*
X191702Y187364*
X192635Y186730*
X193318Y186340*
X193658Y186114*
X194098Y185811*
X194745Y185255*
X195184Y184846*
X195688Y184263*
X196155Y183669*
X196481Y183152*
X196703Y182788*
X197005Y182194*
X197333Y181432*
X197477Y181031*
X197644Y180442*
X197798Y179758*
X197905Y178998*
X197943Y178524*
X197955Y177946*
X197934Y177314*
X197842Y176516*
X197680Y175682*
X197437Y174810*
X197049Y173864*
X196670Y173117*
X196122Y172270*
X195487Y171468*
X194850Y170803*
X194231Y170276*
X193400Y169689*
X192842Y169345*
X149822Y147850*
X148638Y147250*
X147739Y146781*
X146804Y146359*
X145862Y145971*
X145120Y145694*
X144127Y145402*
X143484Y145228*
X143484D02*
X142935Y145113D01*
X142367Y145000*
X141652Y144895*
X140881Y144795*
X139995Y144729*
X139619Y144709*
X138787Y144698*
X138075Y144720*
X137489Y144757*
X136962Y144798*
X136469Y144852*
X135920Y144934*
X135427Y145018*
X134858Y145133*
X134368Y145242*
X133889Y145356*
X133350Y145513*
X132742Y145701*
X132059Y145939*
X132048Y145943D02*
G75*
G03X144231Y111917I-8235J-22143D01*
G01X144224Y111905D02*
X144461Y112326D01*
X144796Y112946*
X145090Y113538*
X145386Y114162*
X145619Y114716*
X145878Y115350*
X146106Y115972*
X146345Y116703*
X146580Y117495*
X146864Y118333*
X147118Y118990*
X147406Y119659*
X147725Y120336*
X148121Y121108*
X148753Y122136*
X149046Y122591*
X149268Y122910*
X149516Y123255*
X149918Y123786*
X150256Y124201*
X150733Y124751*
X151387Y125441*
X152201Y126214*
X152615Y126579*
X153124Y126990*
X153499Y127287*
X153961Y127617*
X154855Y128224*
X155942Y128878*
X164493Y133180*
X209503Y155689*
X214685Y158273*
X218110Y159970*
X223297Y162564*
X225081Y163256*
X226606Y163725*
X227995Y164027*
X228985Y164164*
X229870Y164265*
X230799Y164326*
X231497Y164345*
X271974*
X272936Y164324*
X273725Y164264*
X274671Y164153*
X275429Y164045*
X276082Y163918*
X276802Y163750*
X277415Y163591*
X278239Y163353*
X278991Y163074*
X279854Y162728*
X280812Y162278*
X291988Y156690*
X299956Y152692*
X305541Y149905*
X339060Y133158*
X345067Y130151*
X347429Y128951*
X348479Y128354*
X349499Y127702*
X350284Y127092*
X350996Y126531*
X351690Y125903*
X352306Y125276*
X352680Y124889*
X353275Y124201*
X354019Y123276*
X354483Y122630*
X354978Y121833*
X355576Y120795*
X355938Y120071*
X356426Y118983*
X356881Y117770*
X357203Y116690*
X357618Y115434*
X357956Y114613*
X358387Y113633*
X358386Y113635D02*
G03X372924Y146441I21328J10173D01*
G01X372939Y146446D02*
X372390Y146269D01*
X371859Y146073*
X371275Y145873*
X370721Y145692*
X370164Y145519*
X369499Y145327*
X368941Y145193*
X368353Y145062*
X367822Y144978*
X367418Y144909*
X367022Y144853*
X366603Y144801*
X366182Y144762*
X365726Y144730*
X365239Y144718*
X364601Y144700*
X364477Y144706*
X364135Y144716*
X363788Y144724*
X363402Y144743*
X363099Y144757*
X362745Y144799*
X362347Y144836*
X361954Y144877*
X361344Y144975*
X360837Y145071*
X360337Y145186*
X359872Y145286*
X359392Y145411*
X358829Y145573*
X358273Y145749*
X357558Y146004*
X356814Y146310*
X356236Y146564*
X355131Y147135*
X353749Y147847*
X312390Y168498*
X310360Y169536*
X309507Y170113*
X308669Y170805*
X307825Y171722*
X307162Y172613*
X306525Y173777*
X306176Y174589*
X305789Y175941*
X305649Y176781*
X305595Y177511*
Y177523*
X305580Y178152*
X305618Y178926*
X305694Y179427*
X305824Y180159*
X305948Y180632*
X306112Y181165*
X306112D02*
X306322Y181717D01*
X306541Y182234*
X306912Y182916*
X307416Y183719*
X307952Y184394*
X308517Y185010*
X308951Y185425*
X308951D02*
X309462Y185825D01*
X309884Y186126*
X310601Y186569*
X311204Y186940*
X311546Y187175*
X311902Y187422*
X312247Y187711*
X312609Y188031*
X313044Y188478*
X313332Y188780*
X313637Y189176*
X313957Y189614*
X314379Y190245*
X314798Y191089*
X315020Y191584*
X315327Y192418*
X315668Y193661*
Y308671*
X315653Y309382*
X315572Y309903*
X315344Y310970*
X315140Y311618*
X314816Y312403*
X314233Y313507*
X313862Y314024*
X313509Y314506*
X313078Y314998*
X312663Y315417*
X312123Y315899*
X311657Y316276*
X311235Y316549*
X310448Y317031*
X309827Y317415*
X309354Y317758*
X308885Y318154*
X308463Y318547*
X308060Y318976*
X307641Y319483*
X307229Y320038*
X306801Y320758*
X306417Y321532*
X306150Y322195*
X305912Y322950*
X305738Y323734*
X305605Y324717*
X305582Y325786*
X305582D02*
X305621Y326462D01*
X305671Y326906*
X305817Y327658*
X305922Y328105*
X306176Y328923*
X306487Y329634*
X306870Y330395*
X307248Y330992*
X307641Y331572*
X308196Y332207*
X308707Y332724*
X309351Y333269*
X309903Y333678*
X310379Y333973*
X310962Y334297*
X311651Y334636*
X312418Y335026*
X313414Y335521*
X317082Y337361*
X322011Y339849*
X355289Y356475*
X355958Y356806*
X356739Y357181*
X357428Y357457*
X358030Y357678*
X358449Y357820*
X359020Y358004*
X359543Y358144*
X360039Y358272*
X360488Y358376*
X360922Y358461*
X361410Y358551*
X361951Y358632*
X362519Y358703*
X363065Y358756*
X363537Y358781*
X364125Y358810*
X364725Y358815*
X365266Y358800*
X365827Y358778*
X366361Y358731*
X366946Y358670*
X367497Y358604*
X367933Y358528*
X368516Y358411*
X368516D02*
X369111Y358291D01*
X369573Y358171*
X369968Y358063*
X370408Y357933*
X371011Y357732*
X371473Y357571*
X371488Y357566D02*
G03X357058Y386380I8235J22144D01*
G01Y386378D02*
X356946Y386009D01*
X356732Y385377*
X356531Y384823*
X356268Y384195*
X356042Y383700*
X355718Y383002*
X355312Y382248*
X354893Y381540*
X354511Y380960*
X354041Y380282*
X353416Y379445*
X352268Y378185*
X351388Y377350*
X350835Y376868*
X350328Y376451*
X349752Y376025*
X349101Y375559*
X348267Y375048*
X347264Y374481*
X307358Y354502*
X282872Y342240*
X280931Y341243*
X279711Y340711*
X278359Y340179*
X276445Y339655*
X274966Y339389*
X273710Y339240*
X272911Y339189*
X272378Y339236*
X271715Y339335*
X270947Y339500*
X270367Y339665*
X269739Y339909*
X269355Y340055*
X268800Y340334*
X268476Y340512*
X268134Y340724*
X267652Y341048*
X267163Y341422*
X266589Y341930*
X266142Y342390*
X266142D02*
X265672Y342964D01*
X265349Y343376*
X265022Y343884*
X264711Y344413*
X264445Y344965*
X264258Y345409*
X263868Y346542*
X263696Y347457*
X263602Y348223*
X263580Y348560*
X263577Y349214*
X263567Y349820*
X263564Y349858*
X263554Y350264*
X263485Y350514*
X263329Y350882*
X263082Y351228*
X262742Y351555*
X262422Y351710*
X262111Y351834*
X261794Y351882*
X241903*
X241573Y351853*
X241126Y351749*
X240758Y351511*
X240466Y351263*
X240177Y350848*
X239990Y350350*
X239949Y350029*
X239955Y348830*
X239937Y348495*
X239901Y347969*
X239819Y347417*
X239714Y346814*
X239530Y346135*
X239260Y345390*
X238981Y344752*
X238686Y344169*
X238236Y343468*
X237756Y342815*
X237442Y342438*
X237024Y342010*
X236611Y341635*
X236215Y341293*
X235710Y340915*
X235267Y340644*
X234724Y340321*
X234002Y339971*
X233190Y339662*
X232407Y339444*
X231765Y339322*
X231117Y339223*
X230543Y339185*
X230155Y339180*
X229776Y339192*
X229408Y339206*
X229136Y339232*
X228756Y339282*
X228293Y339354*
X228043Y339405*
X227793Y339458*
X227136Y339656*
X226949Y339707*
X226439Y339830*
X225747Y340023*
X225141Y340214*
X224507Y340436*
X223780Y340737*
X223232Y340966*
X222676Y341232*
X222131Y341511*
X215892Y344617*
X211322Y346930*
X205505Y349894*
X192979Y356091*
X161290Y371950*
X156288Y374447*
X155263Y375040*
X154744Y375360*
X154000Y375863*
X153529Y376206*
X153203Y376452*
X152624Y376923*
X151825Y377635*
X150256Y379309*
X149816Y379857*
X149437Y380349*
X149013Y380966*
X148407Y381929*
X148103Y382465*
X147814Y383006*
X147110Y384552*
X146921Y385032*
X146921D02*
X146048Y387701D01*
X145360Y389422*
X144642Y390846*
X143690Y392493*
X142916Y393611*
X141899Y394923*
X141339Y395542*
X140499Y396435*
X140015Y396896*
X139436Y397422*
X138779Y397973*
X138052Y398554*
X137661Y398848*
X137319Y399089*
X136969Y399324*
X136642Y399543*
X136651Y399537D02*
G03X132055Y357570I-12829J-19830D01*
G01X132059Y357571D02*
X132248Y357628D01*
X132674Y357787*
X133304Y357986*
X133864Y358146*
X134238Y358236*
X134617Y358331*
X134956Y358400*
X135342Y358479*
X135735Y358548*
X136188Y358621*
X137049Y358720*
X137479Y358759*
X138021Y358794*
X138427Y358798*
X138930Y358809*
X139345Y358806*
X139995Y358781*
X140390Y358752*
X141678Y358620*
X142536Y358478*
X143316Y358317*
X143920Y358167*
X144792Y357917*
X145792Y357582*
X147214Y356970*
X190827Y335216*
X188679Y336222*
X188679*
X305996Y303345D02*
G03X305996I-1382J0D01*
G01X313108D02*
G03X313108I-1387J0D01*
G01X137593Y379707D02*
G03X137593I-13780J0D01*
G01X393498D02*
G03X393498I-13780J0D01*
G01X137593Y123802D02*
G03X137593I-13780J0D01*
G01X393498D02*
G03X393498I-13780J0D01*
G54D108*
G01X289372Y172669D02*
X290680Y171361D01*
X292851Y176149D02*
X294160Y174841D01*
X291251Y326561D02*
X292560Y327869D01*
X287772Y330041D02*
X289080Y331349D01*
X211480Y176949D02*
X210172Y175641D01*
X214960Y173469D02*
X213651Y172161D01*
X214960Y330441D02*
X213651Y331749D01*
X211480Y326961D02*
X210172Y328269D01*
G54D115*
X195060Y270610D03*
X308513D03*
G54D116*
X195060Y262736D03*
Y254862D03*
Y246988D03*
Y239114D03*
Y231240D03*
Y223366D03*
Y215492D03*
X308513Y262736D03*
Y254862D03*
Y246988D03*
Y239114D03*
Y231240D03*
Y223366D03*
Y215492D03*
G54D143*
X310566Y205755D03*
G54D144*
Y195755D03*
G54D148*
X259212Y177499D03*
X243466Y177497D03*
G74*
X0Y0D02*
M02*
