*
*
G04 PADS VX.2 Build Number: 5060570 generated Gerber (RS-274-X) file*
G04 PC Version=2.1*
*
%IN "Sky_Master_v4.3.pcb"*%
*
%MOIN*%
*
%FSLAX35Y35*%
*
*
*
*
G04 PC Standard Apertures*
*
*
G04 Thermal Relief Aperture macro.*
%AMTER*
1,1,$1,0,0*
1,0,$1-$2,0,0*
21,0,$3,$4,0,0,45*
21,0,$3,$4,0,0,135*
%
*
*
G04 Annular Aperture macro.*
%AMANN*
1,1,$1,0,0*
1,0,$2,0,0*
%
*
*
G04 Odd Aperture macro.*
%AMODD*
1,1,$1,0,0*
1,0,$1-0.005,0,0*
%
*
*
G04 PC Custom Aperture Macros*
*
*
*
*
*
*
G04 PC Aperture Table*
*
%ADD010C,0.001*%
%ADD011C,0.01*%
%ADD013R,0.012X0.03937*%
%ADD014R,0.03937X0.012*%
%ADD015R,0.22047X0.22047*%
%ADD016R,0.02362X0.02283*%
%ADD017R,0.05906X0.05118*%
%ADD018R,0.026X0.022*%
%ADD021R,0.035X0.035*%
%ADD022R,0.05X0.02*%
%ADD023R,0.022X0.026*%
%ADD024R,0.05X0.05*%
%ADD025R,0.06X0.02362*%
%ADD026R,0.02X0.05*%
%ADD027R,0.03504X0.03504*%
%ADD028R,0.04528X0.05512*%
%ADD029R,0.036X0.036*%
%ADD030R,0.036X0.05*%
%ADD031R,0.02283X0.02362*%
%ADD032R,0.00787X0.03937*%
%ADD033R,0.03937X0.00787*%
%ADD034R,0.18504X0.18504*%
%ADD035R,0.00985X0.03937*%
%ADD036R,0.03937X0.00985*%
%ADD037R,0.06693X0.06693*%
%ADD038O,0.03937X0.00984*%
%ADD039R,0.05X0.04606*%
%ADD040R,0.05118X0.06*%
%ADD041R,0.07874X0.07874*%
%ADD042R,0.05906X0.00984*%
%ADD043R,0.00984X0.05906*%
%ADD044R,0.03937X0.01378*%
%ADD045R,0.07874X0.04724*%
%ADD046R,0.06102X0.02362*%
%ADD049R,0.01575X0.07874*%
%ADD050R,0.15748X0.07874*%
%ADD051R,0.15748X0.07874*%
*
*
*
*
G04 PC Circuitry*
G04 Layer Name Sky_Master_v4.3.pcb - circuitry*
%LPD*%
*
*
G04 PC Custom Flashes*
G04 Layer Name Sky_Master_v4.3.pcb - flashes*
%LPD*%
*
*
G04 PC Circuitry*
G04 Layer Name Sky_Master_v4.3.pcb - circuitry*
%LPD*%
*
G54D10*
G01X188679Y336222D02*
X192558Y334282D01*
X193613Y333693*
X194402Y333098*
X195427Y332113*
X195427D02*
X196175Y331190D01*
X196777Y330194*
X197275Y329138*
X197649Y327978*
X197813Y327315*
X197898Y326653*
X197958Y325796*
Y325084*
X197868Y324118*
X197724Y323371*
X197490Y322504*
X197186Y321688*
X196847Y320961*
X196324Y320069*
X195771Y319312*
X195229Y318709*
X194435Y317965*
X193831Y317511*
X193203Y317095*
X192388Y316620*
X191644Y316102*
X190974Y315528*
X190365Y314914*
X189682Y314066*
X189332Y313542*
X188991Y312944*
X188649Y312251*
X188397Y311588*
X188397D02*
X188209Y311013D01*
X188082Y310502*
X187944Y309776*
X187865Y309138*
X187863Y308752*
Y195152*
X187866Y194869*
X187875Y194341*
X187949Y193612*
X188066Y193063*
X188260Y192322*
X188513Y191599*
X188878Y190778*
X189264Y190067*
X189739Y189368*
X190232Y188750*
X190878Y188059*
X191702Y187364*
X192635Y186730*
X193318Y186340*
X193658Y186114*
X194098Y185811*
X194745Y185255*
X195184Y184846*
X195688Y184263*
X196155Y183669*
X196481Y183152*
X196703Y182788*
X197005Y182194*
X197333Y181432*
X197477Y181031*
X197644Y180442*
X197798Y179758*
X197905Y178998*
X197943Y178524*
X197955Y177946*
X197934Y177314*
X197842Y176516*
X197680Y175682*
X197437Y174810*
X197049Y173864*
X196670Y173117*
X196122Y172270*
X195487Y171468*
X194850Y170803*
X194231Y170276*
X193400Y169689*
X192842Y169345*
X149822Y147850*
X148638Y147250*
X147739Y146781*
X146804Y146359*
X145862Y145971*
X145120Y145694*
X144127Y145402*
X143484Y145228*
X143484D02*
X142935Y145113D01*
X142367Y145000*
X141652Y144895*
X140881Y144795*
X139995Y144729*
X139619Y144709*
X138787Y144698*
X138075Y144720*
X137489Y144757*
X136962Y144798*
X136469Y144852*
X135920Y144934*
X135427Y145018*
X134858Y145133*
X134368Y145242*
X133889Y145356*
X133350Y145513*
X132742Y145701*
X132059Y145939*
X132048Y145943D02*
G75*
G03X144231Y111917I-8235J-22143D01*
G01X144224Y111905D02*
X144461Y112326D01*
X144796Y112946*
X145090Y113538*
X145386Y114162*
X145619Y114716*
X145878Y115350*
X146106Y115972*
X146345Y116703*
X146580Y117495*
X146864Y118333*
X147118Y118990*
X147406Y119659*
X147725Y120336*
X148121Y121108*
X148753Y122136*
X149046Y122591*
X149268Y122910*
X149516Y123255*
X149918Y123786*
X150256Y124201*
X150733Y124751*
X151387Y125441*
X152201Y126214*
X152615Y126579*
X153124Y126990*
X153499Y127287*
X153961Y127617*
X154855Y128224*
X155942Y128878*
X164493Y133180*
X209503Y155689*
X214685Y158273*
X218110Y159970*
X223297Y162564*
X225081Y163256*
X226606Y163725*
X227995Y164027*
X228985Y164164*
X229870Y164265*
X230799Y164326*
X231497Y164345*
X271974*
X272936Y164324*
X273725Y164264*
X274671Y164153*
X275429Y164045*
X276082Y163918*
X276802Y163750*
X277415Y163591*
X278239Y163353*
X278991Y163074*
X279854Y162728*
X280812Y162278*
X291988Y156690*
X299956Y152692*
X305541Y149905*
X339060Y133158*
X345067Y130151*
X347429Y128951*
X348479Y128354*
X349499Y127702*
X350284Y127092*
X350996Y126531*
X351690Y125903*
X352306Y125276*
X352680Y124889*
X353275Y124201*
X354019Y123276*
X354483Y122630*
X354978Y121833*
X355576Y120795*
X355938Y120071*
X356426Y118983*
X356881Y117770*
X357203Y116690*
X357618Y115434*
X357956Y114613*
X358387Y113633*
X358386Y113635D02*
G03X372924Y146441I21328J10173D01*
G01X372939Y146446D02*
X372390Y146269D01*
X371859Y146073*
X371275Y145873*
X370721Y145692*
X370164Y145519*
X369499Y145327*
X368941Y145193*
X368353Y145062*
X367822Y144978*
X367418Y144909*
X367022Y144853*
X366603Y144801*
X366182Y144762*
X365726Y144730*
X365239Y144718*
X364601Y144700*
X364477Y144706*
X364135Y144716*
X363788Y144724*
X363402Y144743*
X363099Y144757*
X362745Y144799*
X362347Y144836*
X361954Y144877*
X361344Y144975*
X360837Y145071*
X360337Y145186*
X359872Y145286*
X359392Y145411*
X358829Y145573*
X358273Y145749*
X357558Y146004*
X356814Y146310*
X356236Y146564*
X355131Y147135*
X353749Y147847*
X312390Y168498*
X310360Y169536*
X309507Y170113*
X308669Y170805*
X307825Y171722*
X307162Y172613*
X306525Y173777*
X306176Y174589*
X305789Y175941*
X305649Y176781*
X305595Y177511*
Y177523*
X305580Y178152*
X305618Y178926*
X305694Y179427*
X305824Y180159*
X305948Y180632*
X306112Y181165*
X306112D02*
X306322Y181717D01*
X306541Y182234*
X306912Y182916*
X307416Y183719*
X307952Y184394*
X308517Y185010*
X308951Y185425*
X308951D02*
X309462Y185825D01*
X309884Y186126*
X310601Y186569*
X311204Y186940*
X311546Y187175*
X311902Y187422*
X312247Y187711*
X312609Y188031*
X313044Y188478*
X313332Y188780*
X313637Y189176*
X313957Y189614*
X314379Y190245*
X314798Y191089*
X315020Y191584*
X315327Y192418*
X315668Y193661*
Y308671*
X315653Y309382*
X315572Y309903*
X315344Y310970*
X315140Y311618*
X314816Y312403*
X314233Y313507*
X313862Y314024*
X313509Y314506*
X313078Y314998*
X312663Y315417*
X312123Y315899*
X311657Y316276*
X311235Y316549*
X310448Y317031*
X309827Y317415*
X309354Y317758*
X308885Y318154*
X308463Y318547*
X308060Y318976*
X307641Y319483*
X307229Y320038*
X306801Y320758*
X306417Y321532*
X306150Y322195*
X305912Y322950*
X305738Y323734*
X305605Y324717*
X305582Y325786*
X305582D02*
X305621Y326462D01*
X305671Y326906*
X305817Y327658*
X305922Y328105*
X306176Y328923*
X306487Y329634*
X306870Y330395*
X307248Y330992*
X307641Y331572*
X308196Y332207*
X308707Y332724*
X309351Y333269*
X309903Y333678*
X310379Y333973*
X310962Y334297*
X311651Y334636*
X312418Y335026*
X313414Y335521*
X317082Y337361*
X322011Y339849*
X355289Y356475*
X355958Y356806*
X356739Y357181*
X357428Y357457*
X358030Y357678*
X358449Y357820*
X359020Y358004*
X359543Y358144*
X360039Y358272*
X360488Y358376*
X360922Y358461*
X361410Y358551*
X361951Y358632*
X362519Y358703*
X363065Y358756*
X363537Y358781*
X364125Y358810*
X364725Y358815*
X365266Y358800*
X365827Y358778*
X366361Y358731*
X366946Y358670*
X367497Y358604*
X367933Y358528*
X368516Y358411*
X368516D02*
X369111Y358291D01*
X369573Y358171*
X369968Y358063*
X370408Y357933*
X371011Y357732*
X371473Y357571*
X371488Y357566D02*
G03X357058Y386380I8235J22144D01*
G01Y386378D02*
X356946Y386009D01*
X356732Y385377*
X356531Y384823*
X356268Y384195*
X356042Y383700*
X355718Y383002*
X355312Y382248*
X354893Y381540*
X354511Y380960*
X354041Y380282*
X353416Y379445*
X352268Y378185*
X351388Y377350*
X350835Y376868*
X350328Y376451*
X349752Y376025*
X349101Y375559*
X348267Y375048*
X347264Y374481*
X307358Y354502*
X282872Y342240*
X280931Y341243*
X279711Y340711*
X278359Y340179*
X276445Y339655*
X274966Y339389*
X273710Y339240*
X272911Y339189*
X272378Y339236*
X271715Y339335*
X270947Y339500*
X270367Y339665*
X269739Y339909*
X269355Y340055*
X268800Y340334*
X268476Y340512*
X268134Y340724*
X267652Y341048*
X267163Y341422*
X266589Y341930*
X266142Y342390*
X266142D02*
X265672Y342964D01*
X265349Y343376*
X265022Y343884*
X264711Y344413*
X264445Y344965*
X264258Y345409*
X263868Y346542*
X263696Y347457*
X263602Y348223*
X263580Y348560*
X263577Y349214*
X263567Y349820*
X263564Y349858*
X263554Y350264*
X263485Y350514*
X263329Y350882*
X263082Y351228*
X262742Y351555*
X262422Y351710*
X262111Y351834*
X261794Y351882*
X241903*
X241573Y351853*
X241126Y351749*
X240758Y351511*
X240466Y351263*
X240177Y350848*
X239990Y350350*
X239949Y350029*
X239955Y348830*
X239937Y348495*
X239901Y347969*
X239819Y347417*
X239714Y346814*
X239530Y346135*
X239260Y345390*
X238981Y344752*
X238686Y344169*
X238236Y343468*
X237756Y342815*
X237442Y342438*
X237024Y342010*
X236611Y341635*
X236215Y341293*
X235710Y340915*
X235267Y340644*
X234724Y340321*
X234002Y339971*
X233190Y339662*
X232407Y339444*
X231765Y339322*
X231117Y339223*
X230543Y339185*
X230155Y339180*
X229776Y339192*
X229408Y339206*
X229136Y339232*
X228756Y339282*
X228293Y339354*
X228043Y339405*
X227793Y339458*
X227136Y339656*
X226949Y339707*
X226439Y339830*
X225747Y340023*
X225141Y340214*
X224507Y340436*
X223780Y340737*
X223232Y340966*
X222676Y341232*
X222131Y341511*
X215892Y344617*
X211322Y346930*
X205505Y349894*
X192979Y356091*
X161290Y371950*
X156288Y374447*
X155263Y375040*
X154744Y375360*
X154000Y375863*
X153529Y376206*
X153203Y376452*
X152624Y376923*
X151825Y377635*
X150256Y379309*
X149816Y379857*
X149437Y380349*
X149013Y380966*
X148407Y381929*
X148103Y382465*
X147814Y383006*
X147110Y384552*
X146921Y385032*
X146921D02*
X146048Y387701D01*
X145360Y389422*
X144642Y390846*
X143690Y392493*
X142916Y393611*
X141899Y394923*
X141339Y395542*
X140499Y396435*
X140015Y396896*
X139436Y397422*
X138779Y397973*
X138052Y398554*
X137661Y398848*
X137319Y399089*
X136969Y399324*
X136642Y399543*
X136651Y399537D02*
G03X132055Y357570I-12829J-19830D01*
G01X132059Y357571D02*
X132248Y357628D01*
X132674Y357787*
X133304Y357986*
X133864Y358146*
X134238Y358236*
X134617Y358331*
X134956Y358400*
X135342Y358479*
X135735Y358548*
X136188Y358621*
X137049Y358720*
X137479Y358759*
X138021Y358794*
X138427Y358798*
X138930Y358809*
X139345Y358806*
X139995Y358781*
X140390Y358752*
X141678Y358620*
X142536Y358478*
X143316Y358317*
X143920Y358167*
X144792Y357917*
X145792Y357582*
X147214Y356970*
X190827Y335216*
X188679Y336222*
X188679*
X305996Y303345D02*
G03X305996I-1382J0D01*
G01X313108D02*
G03X313108I-1387J0D01*
G01X137593Y379707D02*
G03X137593I-13780J0D01*
G01X393498D02*
G03X393498I-13780J0D01*
G01X137593Y123802D02*
G03X137593I-13780J0D01*
G01X393498D02*
G03X393498I-13780J0D01*
G54D11*
G01X308337Y169438D02*
X309436Y168339D01*
Y167361*
X307502Y165427*
X306524*
X305425Y166526*
Y167504*
X307359Y169438*
X308337*
X305951Y166000D02*
X308075D01*
X305425Y167000D02*
X309075D01*
X305921Y168000D02*
X309436D01*
X306921Y169000D02*
X308775D01*
X306000Y165951D02*
Y168079D01*
X307000Y165427D02*
Y169079D01*
X308000Y165925D02*
Y169438D01*
X309000Y166925D02*
Y168775D01*
X300866Y161620D02*
X303499Y164253D01*
X301423Y166330*
X298789Y163696*
X300866Y161620*
X300485Y162000D02*
X301246D01*
X299485Y163000D02*
X302246D01*
X299093Y164000D02*
X303246D01*
X300093Y165000D02*
X302753D01*
X301093Y166000D02*
X301753D01*
X299000Y163485D02*
Y163907D01*
X300000Y162485D02*
Y164907D01*
X301000Y161754D02*
Y165907D01*
X302000Y162754D02*
Y165753D01*
X303000Y163754D02*
Y164753D01*
X298593Y159694D02*
X299692Y158595D01*
Y157617*
X297758Y155683*
X296780*
X295681Y156782*
Y157760*
X297615Y159694*
X298593*
X296464Y156000D02*
X298075D01*
X295681Y157000D02*
X299075D01*
X295921Y158000D02*
X299692D01*
X296921Y159000D02*
X299287D01*
X296000Y156464D02*
Y158079D01*
X297000Y155683D02*
Y159079D01*
X298000Y155925D02*
Y159694D01*
X299000Y156925D02*
Y159287D01*
X293059Y165829D02*
X291539Y164309D01*
X293059Y162789*
X294579Y164309*
X293059Y165829*
X292848Y163000D02*
X293270D01*
X291848Y164000D02*
X294270D01*
X292230Y165000D02*
X293888D01*
X292000Y163848D02*
Y164770D01*
X293000Y162848D02*
Y165770D01*
X294000Y163730D02*
Y164888D01*
X300979Y173749D02*
X299459Y172229D01*
X300979Y170709*
X302499Y172229*
X300979Y173749*
X300688Y171000D02*
X301270D01*
X299688Y172000D02*
X302270D01*
X300230Y173000D02*
X301728D01*
X300000Y171688D02*
Y172770D01*
X301000Y170730D02*
Y173728D01*
X302000Y171730D02*
Y172728D01*
X196387Y332878D02*
X195288Y333977D01*
Y334954*
X197223Y336889*
X198200*
X199299Y335790*
Y334812*
X197365Y332878*
X196387*
X196265Y333000D02*
X197488D01*
X195288Y334000D02*
X198488D01*
X195334Y335000D02*
X199299D01*
X196334Y336000D02*
X199089D01*
X196000Y333265D02*
Y335666D01*
X197000Y332878D02*
Y336666D01*
X198000Y333512D02*
Y336889D01*
X199000Y334512D02*
Y336089D01*
X203858Y340696D02*
X201225Y338062D01*
X203302Y335986*
X205935Y338619*
X203858Y340696*
X203287Y336000D02*
X203316D01*
X202287Y337000D02*
X204316D01*
X201287Y338000D02*
X205316D01*
X202162Y339000D02*
X205554D01*
X203162Y340000D02*
X204554D01*
X202000Y337287D02*
Y338838D01*
X203000Y336287D02*
Y339838D01*
X204000Y336684D02*
Y340554D01*
X205000Y337684D02*
Y339554D01*
X206131Y342621D02*
X205032Y343720D01*
Y344698*
X206966Y346632*
X207944*
X209043Y345533*
Y344555*
X207109Y342621*
X206131*
X205752Y343000D02*
X207488D01*
X205032Y344000D02*
X208488D01*
X205334Y345000D02*
X209043D01*
X206334Y346000D02*
X208576D01*
X206000Y342752D02*
Y345666D01*
X207000Y342621D02*
Y346632D01*
X208000Y343512D02*
Y346576D01*
X209000Y344512D02*
Y345576D01*
X292888Y344733D02*
X293987Y345832D01*
X294965*
X296899Y343898*
Y342920*
X295800Y341821*
X294823*
X292888Y343755*
Y344733*
X294644Y342000D02*
X295979D01*
X293644Y343000D02*
X296899D01*
X292888Y344000D02*
X296797D01*
X293155Y345000D02*
X295797D01*
X293000Y343644D02*
Y344845D01*
X294000Y342644D02*
Y345832D01*
X295000Y341821D02*
Y345797D01*
X296000Y342021D02*
Y344797D01*
X300707Y337262D02*
X298073Y339896D01*
X295996Y337819*
X298630Y335186*
X300707Y337262*
X297815Y336000D02*
X299444D01*
X296815Y337000D02*
X300444D01*
X296177Y338000D02*
X299969D01*
X297177Y339000D02*
X298969D01*
X296000Y337815D02*
Y337823D01*
X297000Y336815D02*
Y338823D01*
X298000Y335815D02*
Y339823D01*
X299000Y335556D02*
Y338969D01*
X300000Y336556D02*
Y337969D01*
X302632Y334990D02*
X303731Y336089D01*
X304709*
X306643Y334154*
Y333177*
X305544Y332078*
X304566*
X302632Y334012*
Y334990*
X303644Y333000D02*
X306466D01*
X302644Y334000D02*
X306643D01*
X302642Y335000D02*
X305797D01*
X303642Y336000D02*
X304797D01*
X303000Y333644D02*
Y335358D01*
X304000Y332644D02*
Y336089D01*
X305000Y332078D02*
Y335797D01*
X306000Y332534D02*
Y334797D01*
X207843Y156777D02*
X206744Y155678D01*
X205766*
X203832Y157612*
Y158590*
X204931Y159689*
X205909*
X207843Y157754*
Y156777*
X205444Y156000D02*
X207066D01*
X204444Y157000D02*
X207843D01*
X203832Y158000D02*
X207597D01*
X204242Y159000D02*
X206597D01*
X204000Y157444D02*
Y158758D01*
X205000Y156444D02*
Y159689D01*
X206000Y155678D02*
Y159597D01*
X207000Y155934D02*
Y158597D01*
X200025Y164248D02*
X202658Y161614D01*
X204735Y163691*
X202102Y166324*
X200025Y164248*
X202272Y162000D02*
X203044D01*
X201272Y163000D02*
X204044D01*
X200272Y164000D02*
X204426D01*
X200777Y165000D02*
X203426D01*
X201777Y166000D02*
X202426D01*
X201000Y163272D02*
Y165223D01*
X202000Y162272D02*
Y166223D01*
X203000Y161956D02*
Y165426D01*
X204000Y162956D02*
Y164426D01*
X198099Y166520D02*
X197000Y165421D01*
X196023*
X194088Y167355*
Y168333*
X195187Y169432*
X196165*
X198099Y167498*
Y166520*
X195444Y166000D02*
X197579D01*
X194444Y167000D02*
X198099D01*
X194088Y168000D02*
X197597D01*
X194755Y169000D02*
X196597D01*
X195000Y166444D02*
Y169245D01*
X196000Y165444D02*
Y169432D01*
X197000Y165421D02*
Y168597D01*
X198000Y166421D02*
Y167597D01*
X290206Y338435D02*
X288686Y336915D01*
X290206Y335395*
X291726Y336915*
X290206Y338435*
X289601Y336000D02*
X290811D01*
X288771Y337000D02*
X291641D01*
X289771Y338000D02*
X290641D01*
X289000Y336601D02*
Y337229D01*
X290000Y335601D02*
Y338229D01*
X291000Y336189D02*
Y337641D01*
X298126Y330515D02*
X296606Y328995D01*
X298126Y327475*
X299646Y328995*
X298126Y330515*
X297601Y328000D02*
X298650D01*
X296610Y329000D02*
X299641D01*
X297610Y330000D02*
X298641D01*
X297000Y328601D02*
Y329390D01*
X298000Y327601D02*
Y330390D01*
X299000Y328350D02*
Y329641D01*
X211786Y165513D02*
X210266Y163993D01*
X211786Y162473*
X213306Y163993*
X211786Y165513*
X211259Y163000D02*
X212314D01*
X210274Y164000D02*
X213299D01*
X211274Y165000D02*
X212299D01*
X211000Y163259D02*
Y164726D01*
X212000Y162686D02*
Y165299D01*
X213000Y163686D02*
Y164299D01*
X203867Y173432D02*
X202347Y171912D01*
X203867Y170392*
X205387Y171912*
X203867Y173432*
X203259Y171000D02*
X204474D01*
X202434Y172000D02*
X205299D01*
X203434Y173000D02*
X204299D01*
X203000Y171259D02*
Y172566D01*
X204000Y170526D02*
Y173299D01*
X205000Y171526D02*
Y172299D01*
X211726Y339635D02*
X210206Y338115D01*
X211726Y336595*
X213246Y338115*
X211726Y339635*
X211320Y337000D02*
X212131D01*
X210320Y338000D02*
X213131D01*
X211091Y339000D02*
X212360D01*
X211000Y337320D02*
Y338909D01*
X212000Y336869D02*
Y339360D01*
X213000Y337869D02*
Y338360D01*
X203806Y331715D02*
X202286Y330195D01*
X203806Y328675*
X205326Y330195*
X203806Y331715*
X203481Y329000D02*
X204131D01*
X202481Y330000D02*
X205131D01*
X203091Y331000D02*
X204521D01*
X203000Y329481D02*
Y330909D01*
X204000Y328869D02*
Y331521D01*
X205000Y329869D02*
Y330521D01*
G54D13*
X268992Y237528D03*
X267024D03*
X265055D03*
X263087D03*
X261118D03*
X259150D03*
X257181D03*
X255213D03*
X253244D03*
X251276D03*
X249307D03*
X247339D03*
Y209182D03*
X249307D03*
X251276D03*
X253244D03*
X255213D03*
X257181D03*
X259150D03*
X261118D03*
X263087D03*
X265055D03*
X267024D03*
X268992D03*
G54D14*
X243992Y234182D03*
Y232213D03*
Y230245D03*
Y228276D03*
Y226308D03*
Y224339D03*
Y222371D03*
Y220402D03*
Y218434D03*
Y216465D03*
Y214497D03*
Y212528D03*
X272339D03*
Y214497D03*
Y216465D03*
Y218434D03*
Y220402D03*
Y222371D03*
Y224339D03*
Y226308D03*
Y228276D03*
Y230245D03*
Y232213D03*
Y234182D03*
G54D15*
X258166Y223355D03*
G54D16*
X240207Y317132D03*
X235876D03*
X254602Y245005D03*
X250271D03*
X248987Y267773D03*
X253318D03*
X301648Y274748D03*
X297317D03*
X280709Y268043D03*
X276379D03*
X231915Y215341D03*
X236246D03*
X268775Y202339D03*
X273106D03*
X231915Y209741D03*
X236246D03*
X283953Y235110D03*
X279622D03*
X238215Y294867D03*
X242546D03*
X238215Y290467D03*
X242546D03*
X272339Y313002D03*
X268009D03*
X272346Y309005D03*
X268016D03*
X266507Y267825D03*
X270838D03*
X250434Y254024D03*
X254764D03*
X235842Y321273D03*
X240173D03*
X235842Y329273D03*
X240173D03*
X235842Y325273D03*
X240173D03*
X208297Y209061D03*
X212628D03*
X193585Y192505D03*
X197916D03*
X220746Y282205D03*
X216416D03*
X254602Y249405D03*
X250271D03*
G54D17*
X308166Y296268D03*
Y310442D03*
G54D18*
X279811Y169052D03*
X284211D03*
X218659Y315392D03*
X223059D03*
X280732Y264035D03*
X276332D03*
X276325Y259952D03*
X280725D03*
X223067Y311075D03*
X218667D03*
X272369Y324197D03*
X267969D03*
X272369Y319797D03*
X267969D03*
X250396Y339505D03*
X245996D03*
X270892Y259917D03*
X266492D03*
X266484Y263834D03*
X270884D03*
X231962Y220513D03*
X236362D03*
X287169Y304997D03*
X282769D03*
X278190Y194144D03*
X282590D03*
X282762Y309313D03*
X287162D03*
X282597Y189827D03*
X278197D03*
X223569Y190197D03*
X219169D03*
G54D21*
X211669Y220411D03*
Y227411D03*
G54D22*
X304543Y280607D03*
Y284347D03*
Y288087D03*
X294543D03*
Y280607D03*
G54D23*
X283968Y226953D03*
Y231353D03*
X302207Y252751D03*
Y257151D03*
X258944Y335077D03*
Y339477D03*
X220671Y228876D03*
Y224476D03*
X224671Y228876D03*
Y224476D03*
X302072Y245614D03*
Y241214D03*
X250524Y199559D03*
Y195159D03*
X200607Y317151D03*
Y321551D03*
X202607Y179951D03*
Y184351D03*
X204607Y317151D03*
Y321551D03*
X278207Y330751D03*
Y335151D03*
X282607Y330751D03*
Y335151D03*
X223724Y199559D03*
Y195159D03*
G54D24*
X297705Y307151D03*
Y297151D03*
G54D25*
X264024Y255295D03*
Y250571D03*
Y245847D03*
G54D26*
X244166Y202155D03*
X240426D03*
X236685D03*
Y192155D03*
X240426D03*
X244166D03*
X204566Y192555D03*
X208306D03*
X212046D03*
Y202555D03*
X204566D03*
G54D27*
X310633Y280956D03*
Y288043D03*
X229698Y200554D03*
Y193467D03*
G54D28*
X236184Y310633D03*
Y301972D03*
X242341D03*
Y310633D03*
G54D29*
X218677Y320855D03*
X226177D03*
X282821Y314845D03*
X290321D03*
X282538Y184295D03*
X275038D03*
X225110Y184265D03*
X217610D03*
G54D30*
X222477Y330036D03*
X286621Y324026D03*
X278738Y175114D03*
X221310Y175084D03*
G54D31*
X250373Y311503D03*
Y307173D03*
X193416Y197574D03*
Y201905D03*
X197816Y197574D03*
Y201905D03*
X254616Y335174D03*
Y339505D03*
X218916Y266336D03*
Y262005D03*
X214516Y266336D03*
Y262005D03*
X223316Y266336D03*
Y262005D03*
G54D32*
X254315Y275152D03*
X255890D03*
X257465D03*
X259040D03*
X260615D03*
X262189D03*
X263764D03*
X265339D03*
X266914D03*
X268489D03*
X270063D03*
X271638D03*
Y300348D03*
X270063D03*
X268489D03*
X266914D03*
X265339D03*
X263764D03*
X262189D03*
X260615D03*
X259040D03*
X257465D03*
X255890D03*
X254315D03*
G54D33*
X275575Y279089D03*
Y280663D03*
Y282238D03*
Y283813D03*
Y285388D03*
Y286963D03*
Y288537D03*
Y290112D03*
Y291687D03*
Y293262D03*
Y294837D03*
Y296411D03*
X250378D03*
Y294837D03*
Y293262D03*
Y291687D03*
Y290112D03*
Y288537D03*
Y286963D03*
Y285388D03*
Y283813D03*
Y282238D03*
Y280663D03*
Y279050D03*
G54D34*
X262977Y287750D03*
G54D35*
X250670Y316427D03*
X252639D03*
X254607D03*
X256576D03*
Y329419D03*
X254607D03*
X252639D03*
X250670D03*
G54D36*
X260119Y319970D03*
Y321923D03*
Y323923D03*
Y325923D03*
X247127Y325875D03*
Y323907D03*
Y321938D03*
Y319970D03*
G54D37*
X253623Y322923D03*
G54D38*
X256467Y311291D03*
Y309323D03*
Y307354D03*
X261979D03*
Y309323D03*
Y311291D03*
G54D39*
X300623Y205280D03*
Y196618D03*
G54D40*
X246016Y347755D03*
X257516D03*
G54D41*
X217766Y246155D03*
G54D42*
X227411Y241234D03*
Y243202D03*
Y245171D03*
Y247139D03*
Y249108D03*
Y251076D03*
X208120D03*
Y249108D03*
Y247139D03*
Y245171D03*
Y243202D03*
Y241234D03*
G54D43*
X222687Y255801D03*
X220718D03*
X218750D03*
X216781D03*
X214813D03*
X212844D03*
Y236509D03*
X214813D03*
X216781D03*
X218750D03*
X220718D03*
X222687D03*
G54D44*
X223100Y277994D03*
Y275434D03*
Y272875D03*
Y270316D03*
X214832D03*
Y272875D03*
Y275434D03*
Y277994D03*
G54D45*
X192166Y278055D03*
Y307802D03*
G54D46*
X206966Y283355D03*
Y287292D03*
Y291229D03*
Y295166D03*
Y299103D03*
Y303040D03*
G54D49*
X246220Y181431D03*
X248779D03*
X251338D03*
X253897D03*
X256456D03*
G54D50*
X235590Y168951D03*
G54D51*
X267005Y168961D03*
G74*
X0Y0D02*
M02*
