M48
;FILE_FORMAT=2:4
INCH,LZ
FMAT,2
ICI,OFF
;TYPE=PLATED
T1C.012
T2C.016
T3C.02
T4C.02372
T6C.02756
T7C.03543
;TYPE=NON_PLATED
T5C.02372
%
M72
G90
G93X0Y0
T1C.012F095S3
X020617Y018439
X021231Y018791
X021793Y021267
X02035Y021467
X020525Y021665
X020342Y021897
X02052Y022102
X021772Y022789
X02175Y023049
X021475Y023117
X020318Y023211
X020324Y02349
X020936Y023781
X021004Y025583
X020967Y026634
X021413Y028698
X021247Y028901
X021401Y029124
X021228Y029517
X021884Y030104
X021412Y030637
X021128Y03064
X022086Y030304
X02251Y02816
X022653Y026523
X023046Y026055
X024162Y025733
X023396Y023574
X022493Y023531
X022761Y023007
X023847Y022589
X02362Y022389
X022066Y021255
X024061Y020765
X024995Y019096
X026495Y019255
X025056Y020496
X025599Y020496
X026541Y020497
X025329Y020499
X024762Y020534
X024422Y020809
X024463Y023855
X02517Y024218
X026915Y025095
X024466Y025346
X025175Y025745
X025645Y026182
X024899Y02644
X025417Y027115
X025056Y030358
X02635Y031422
X028968Y031907
X02811Y031897
X027822Y031859
X027234Y031639
X028013Y02958
X027943Y029326
X02813Y027691
X027597Y027152
X029263Y027034
X029254Y026302
X028072Y025658
X027686Y025641
X027732Y025099
X028582Y024736
X027986Y024735
X029259Y024651
X027636Y024393
X027173Y023841
X028623Y023742
X028055Y022999
X027842Y022831
X027709Y021996
X027893Y021785
X029207Y021783
X027725Y021583
X029396Y021571
X027885Y021356
X029214Y021354
X027721Y021135
X028584Y021121
X028588Y020858
X027299Y019135
X028632Y018261
X027589Y017996
X03006Y019022
X029465Y021844
X029951Y025995
X029939Y026269
X029939Y026548
X031328Y026635
X029966Y026873
X029708Y026946
X029489Y027197
X029565Y03027
T2C.016F095S3
X020914Y016034
X021846Y016324
X02006Y016903
X020686Y018043
X020751Y018789
X021562Y018802
X019805Y018864
X021734Y019313
X020154Y019716
X020656Y019752
X02114Y019756
X020854Y020141
X020452Y020494
X020041Y02052
X019446Y020567
X020454Y020794
X01985Y020859
X019467Y021043
X020179Y021174
X020964Y021214
X020058Y022191
X020004Y022492
X019857Y022763
X020485Y025917
X021031Y025946
X020514Y026312
X020459Y026706
X021016Y027046
X020517Y027222
X020965Y027541
X020536Y027897
X019419Y028361
X019832Y02837
X019447Y028935
X021737Y029231
X019828Y029448
X021678Y029654
X019418Y029936
X020165Y029971
X021274Y029992
X019794Y03029
X020157Y030312
X020534Y030779
X019842Y030945
X021351Y031113
X021479Y031525
X020966Y031527
X021318Y031938
X021876Y032521
X021833Y033703
X021869Y034058
X022453Y033632
X023475Y033521
X024081Y033492
X022845Y033268
X024378Y032896
X022741Y032864
X023082Y03247
X022389Y03247
X023092Y031912
X023629Y031744
X022777Y031446
X023121Y031038
X021918Y0307
X022642Y030662
X022967Y0304
X022638Y030057
X022958Y02991
X0227Y029181
X023241Y029165
X024157Y02813
X023775Y028099
X022723Y027959
X024056Y027842
X024412Y027797
X022697Y027551
X023288Y027429
X022957Y0272
X023425Y027072
X023271Y026803
X024161Y026632
X024161Y026144
X022739Y023847
X023339Y023247
X022085Y020812
X022893Y020796
X023203Y020499
X02334Y020041
X022005Y01986
X024036Y019723
X023668Y019717
X023314Y019689
X024138Y018724
X023296Y018628
X022958Y018614
X022885Y017804
X023453Y017779
X023904Y017768
X022322Y016632
X024694Y017187
X025486Y017201
X024438Y018728
X026892Y018902
X026423Y018905
X02609Y01917
X02657Y019547
X025595Y019667
X024737Y019839
X025391Y019939
X025471Y021352
X026154Y021355
X026734Y021391
X026148Y021953
X026745Y021954
X02548Y021968
X024894Y021976
X024876Y022536
X026752Y022537
X026165Y022543
X025492Y022555
X025491Y023263
X024881Y023272
X026913Y024689
X02581Y025505
X026265Y025949
X024506Y026203
X024615Y027062
X024998Y027157
X025148Y027483
X024736Y027618
X02608Y028053
X02555Y028053
X026558Y028057
X024526Y028138
X026112Y029089
X025553Y029097
X026565Y0291
X02658Y029532
X026106Y029554
X025561Y029566
X025112Y029914
X024864Y030088
X026053Y031699
X02638Y031722
X024834Y031737
X025547Y032126
X025177Y032142
X025177Y032468
X025536Y032468
X026388Y032499
X02477Y032893
X026535Y032964
X02608Y033071
X026319Y033485
X024665Y033494
X026934Y033471
X027437Y033467
X027048Y03299
X027411Y032854
X028254Y032735
X027818Y032729
X028684Y031917
X028688Y031231
X029188Y031045
X02761Y030387
X029009Y030142
X027473Y029869
X029021Y029758
X029322Y029533
X027052Y02952
X028974Y029443
X02927Y029148
X027049Y029097
X027038Y028071
X02749Y027631
X027791Y02747
X028036Y027199
X026954Y025606
X027908Y025346
X02748Y025311
X027436Y024696
X028347Y024272
X029222Y02398
X02796Y023896
X027685Y023263
X027222Y020973
X027838Y020669
X029194Y02044
X02771Y020266
X028336Y020212
X028331Y019912
X027317Y019908
X029143Y019893
X027054Y019543
X02745Y019521
X029149Y019229
X028803Y018883
X028803Y018541
X029104Y018179
X028226Y016452
X028747Y016194
X029971Y017893
X030255Y018106
X029982Y018337
X030419Y018476
X029975Y018737
X030606Y018832
X030958Y019056
X030393Y019147
X030639Y020002
X030261Y021078
X030215Y024896
X030288Y026868
X030337Y027176
X029955Y027893
X029442Y028417
X029611Y029165
X030747Y029165
X030811Y030348
X02999Y0313
X030408Y031496
X030898Y031527
X029984Y031601
X030438Y031886
X030036Y032132
X030338Y032405
T3C.02F197S55
X021431Y017282
X021083Y017629
X021083Y032762
X021431Y033109
X028843Y033069
X029191Y032722
X029351Y017549
X029003Y017202
T4C.02372F197S55
X025921Y01775
T5C.02372F197S55
X024347Y01775
T6C.02756F197S55
X019506Y021549
X019506Y022337
X019506Y023124
X019506Y023911
X019506Y024699
X019506Y025486
X019506Y026274
X019506Y027061
X030851Y027061
X030851Y026274
X030851Y025486
X030851Y024699
X030851Y023911
X030851Y023124
X030851Y022337
X030851Y021549
T7C.03543F197S55
X031057Y019575
X031057Y020575
M30
