*
*
G04 PADS VX.2 Build Number: 5060570 generated Gerber (RS-274-X) file*
G04 PC Version=2.1*
*
%IN "Sky_Master_v4.3_2019010"*%
*
%MOIN*%
*
%FSLAX35Y35*%
*
*
*
*
G04 PC Standard Apertures*
*
*
G04 Thermal Relief Aperture macro.*
%AMTER*
1,1,$1,0,0*
1,0,$1-$2,0,0*
21,0,$3,$4,0,0,45*
21,0,$3,$4,0,0,135*
%
*
*
G04 Annular Aperture macro.*
%AMANN*
1,1,$1,0,0*
1,0,$2,0,0*
%
*
*
G04 Odd Aperture macro.*
%AMODD*
1,1,$1,0,0*
1,0,$1-0.005,0,0*
%
*
*
G04 PC Custom Aperture Macros*
*
*
*
*
*
*
G04 PC Aperture Table*
*
%ADD010C,0.001*%
%ADD011C,0.01*%
%ADD057C,0.006*%
%ADD060C,0.005*%
*
*
*
*
G04 PC Circuitry*
G04 Layer Name Sky_Master_v4.3_2019010 - circuitry*
%LPD*%
*
G54D10*
G01X289394Y299634D02*
X289284Y300076D01*
X288964Y300183*
X288524Y300073*
X288415Y299743*
X288295Y298908*
X288286Y298885*
X287926Y298405*
X287904Y298389*
X287304Y298149*
X287293Y298145*
X286453Y298025*
X286439*
X285599Y298145*
X285583Y298150*
X285103Y298390*
X285086Y298405*
X284726Y298885*
X284716Y298907*
X284596Y299627*
Y299635*
X284597Y299647*
X284717Y300127*
X284721Y300137*
X284961Y300617*
X284994Y300643*
X285473Y300763*
X286308Y301002*
X286543Y301120*
X286555Y301124*
X287629Y301362*
X288332Y301714*
X288919Y302536*
X289154Y303594*
X288919Y304536*
X288450Y305357*
X287509Y305827*
X286324Y306064*
X285493Y305945*
X285486*
X285138*
X284908Y305830*
X284902Y305828*
X284542Y305708*
X284476Y305755*
Y305854*
X284265Y306065*
X283821*
X283496Y305848*
Y305523*
X283613Y305171*
X283615Y305165*
X283735Y304565*
X283736Y304555*
Y303483*
X283845Y303154*
X284166Y303048*
X284494Y303157*
X284716Y303490*
Y304315*
X284726Y304345*
X285086Y304825*
X285103Y304840*
X285583Y305080*
X285597Y305084*
X285597D02*
X286317Y305204D01*
X286317D02*
X286333D01*
X287173Y305084*
X287191Y305078*
X287791Y304718*
X287807Y304703*
X288047Y304343*
X288055Y304325*
X288175Y303725*
X288176Y303715*
X288175Y303707*
X288055Y302987*
X288046Y302965*
X287686Y302485*
X287668Y302470*
X287188Y302230*
X287179Y302227*
X286340Y301987*
X285982Y301868*
X285978Y301866*
X285500Y301747*
X285144Y301628*
X284317Y301274*
X283852Y300693*
X283617Y299516*
X283852Y298575*
X284321Y297872*
X285262Y297284*
X286448Y297165*
X287156*
X287745Y297401*
X288223Y297640*
X288290Y297617*
X288407Y297385*
X288626Y297165*
X288954*
X289165Y297270*
X289274Y297597*
X289157Y298063*
X289156Y298075*
Y298555*
X289157Y298566*
X289394Y299634*
X282193Y305395D02*
X282085Y305720D01*
X281874Y305825*
X280136*
Y301315*
X280056Y301275*
X278256Y302595*
X278236Y302635*
Y302875*
X278286Y302925*
X278505*
X278601Y303021*
X278714Y303473*
X278610Y303785*
X275894*
X275565Y303675*
X275458Y303355*
X275565Y303034*
X275894Y302925*
X276246*
X276268Y302920*
X276508Y302800*
X276516Y302795*
X278436Y301355*
X278447Y301287*
X276527Y298407*
X276508Y298390*
X276268Y298270*
X276246Y298265*
X275778*
X275567Y298160*
X275458Y297835*
X275567Y297510*
X275778Y297405*
X277918*
X278246Y297514*
X278353Y297835*
X278245Y298160*
X278023Y298270*
X278010Y298280*
X277890Y298400*
X277881Y298457*
X278001Y298697*
X278003Y298701*
X279203Y300621*
X279278Y300633*
X280118Y299913*
X280136Y299875*
Y297405*
X281874*
X282085Y297510*
X282193Y297835*
X282085Y298160*
X281874Y298265*
X281286*
X281250Y298280*
X281130Y298400*
X281116Y298435*
Y304675*
X281130Y304710*
X281370Y304950*
X281406Y304965*
X281874*
X282085Y305070*
X282193Y305395*
X274633Y303115D02*
X274525Y303440D01*
X274314Y303545*
X272178*
X271967Y303440*
X271858Y303115*
X271967Y302790*
X272178Y302685*
X272646*
X272696Y302635*
Y302275*
X272692Y302256*
X271492Y299256*
X271401Y299252*
X269841Y302252*
X269836Y302275*
Y302635*
X269886Y302685*
X270354*
X270565Y302790*
X270673Y303115*
X270565Y303440*
X270354Y303545*
X267978*
X267767Y303440*
X267658Y303115*
X267767Y302790*
X267985Y302681*
X268342Y302562*
X268361Y302550*
X268601Y302310*
X268610Y302298*
X271370Y297018*
X271376Y296995*
Y296635*
X271326Y296585*
X270734*
X270405Y296475*
X270298Y296155*
X270405Y295834*
X270734Y295725*
X273954*
X274165Y295830*
X274273Y296155*
X274165Y296480*
X273954Y296585*
X272766*
X272730Y296600*
X272490Y296840*
X272481Y296853*
X272001Y297813*
X271999Y297853*
X273679Y302292*
X273798Y302651*
X273846Y302685*
X274314*
X274525Y302790*
X274633Y303115*
X262513Y305395D02*
X262405Y305720D01*
X262194Y305825*
X260192*
X259971Y305492*
X258533Y301418*
X258530Y301413*
X258410Y301173*
X258316Y301195*
Y301426*
X256881Y305372*
X256655Y305711*
X256200Y305825*
X254538*
X254327Y305720*
X254218Y305395*
X254327Y305070*
X254538Y304965*
X255126*
X255170Y304937*
X255290Y304697*
X255296Y304675*
Y298555*
X255290Y298533*
X255170Y298293*
X255126Y298265*
X254538*
X254327Y298160*
X254218Y297835*
X254327Y297510*
X254538Y297405*
X256914*
X257125Y297510*
X257233Y297835*
X257125Y298160*
X256914Y298265*
X256566*
X256530Y298280*
X256290Y298520*
X256276Y298555*
Y303835*
X256373Y303850*
X257333Y300852*
X257932Y299293*
X257933Y299291*
X258045Y298954*
X258366Y298848*
X258694Y298957*
X258921Y299298*
X259519Y300852*
X260478Y303850*
X260576Y303835*
Y298555*
X260570Y298533*
X260450Y298293*
X260406Y298265*
X259938*
X259727Y298160*
X259618Y297835*
X259729Y297502*
X259826Y297405*
X262194*
X262405Y297510*
X262513Y297835*
X262402Y298168*
X262305Y298265*
X261726*
X261681Y298293*
X261561Y298533*
X261556Y298555*
Y304675*
X261561Y304697*
X261681Y304937*
X261726Y304965*
X262305*
X262402Y305062*
X262513Y305395*
X252915Y299272D02*
X252680Y300212D01*
X252093Y300916*
X251270Y301386*
X250083Y301505*
X249372*
X248898Y301386*
X248886Y301385*
X248526*
X248477Y301447*
X248597Y301927*
X248601Y301937*
X248841Y302417*
X248856Y302435*
X249336Y302795*
X249354Y302803*
X249834Y302923*
X249851Y302925*
X250931Y302805*
X250948Y302800*
X252138Y302205*
X252345*
X252562Y302422*
X252671Y302748*
X252451Y303076*
X251272Y303666*
X249847Y303785*
X249021Y303667*
X248315Y303314*
X247731Y302729*
X247496Y301789*
Y298555*
X247481Y298520*
X247241Y298280*
X247206Y298265*
X246858*
X246647Y298160*
X246538Y297835*
X246647Y297510*
X246858Y297405*
X248476*
Y297595*
X248490Y297630*
X248610Y297750*
X248681*
X248793Y297639*
X249142Y297522*
X249153Y297517*
X249503Y297283*
X250685Y297165*
X251628Y297283*
X252332Y297752*
X252798Y298335*
X252915Y299272*
X251934Y299263D02*
X251814Y298783D01*
X251807Y298767*
X251567Y298407*
X251553Y298393*
X251193Y298153*
X251178Y298146*
X250698Y298026*
X250676*
X250076Y298146*
X250070Y298148*
X249350Y298388*
X249343Y298390*
X248863Y298630*
X248846Y298645*
X248486Y299125*
X248476Y299155*
Y300475*
X248517Y300524*
X248517D02*
X249237Y300644D01*
X249237D02*
X249246Y300645D01*
X249846*
X249852*
X250812Y300525*
X250831Y300518*
X251431Y300158*
X251441Y300150*
X251801Y299790*
X251814Y299767*
X251934Y299287*
Y299263*
X245476Y299494D02*
X245379Y299591D01*
X245038Y299705*
X244597*
X244494Y299499*
X244375Y298787*
X244367Y298767*
X244127Y298407*
X244104Y298389*
X243504Y298149*
X243493Y298145*
X242653Y298025*
X242646*
X241926*
X241903Y298030*
X241423Y298270*
X241410Y298280*
X241170Y298520*
X241157Y298543*
X241037Y299023*
X241038Y299051*
X241158Y299411*
X241164Y299423*
X241404Y299783*
X241434Y299803*
X241914Y299923*
X241917Y299924*
X241917D02*
X242637Y300044D01*
X242637D02*
X242640Y300045D01*
X243596Y300164*
X244420Y300399*
X245001Y300981*
X245235Y301917*
X245118Y302617*
X244770Y303198*
X243950Y303666*
X242887Y303785*
X242176Y303666*
X241703Y303548*
X241468Y303430*
X241401Y303453*
X241285Y303685*
X241185Y303785*
X240734*
X240401Y303674*
X240297Y303467*
X240415Y302642*
Y302628*
X240297Y301803*
X240400Y301598*
X240852Y301485*
X241194*
X241396Y301586*
Y301675*
X241397Y301685*
X241517Y302285*
X241524Y302303*
X241764Y302663*
X241794Y302683*
X242274Y302803*
X242276Y302804*
X242876Y302924*
X242896*
X243496Y302804*
X243502Y302802*
X243862Y302682*
X243887Y302663*
X244127Y302303*
X244133Y302291*
X244253Y301931*
Y301899*
X244133Y301539*
X244127Y301527*
X243887Y301167*
X243854Y301146*
X243134Y301026*
X243133Y301025*
X242292Y300905*
X241340Y300786*
X240638Y300435*
X240173Y299854*
X240056Y299035*
X240173Y298219*
X240636Y297755*
X241461Y297284*
X242645Y297165*
X243477Y297284*
X244069Y297403*
X244303Y297520*
X244361Y297510*
X244706Y297165*
X245038*
X245366Y297274*
X245475Y297600*
X245356Y298428*
Y298442*
X245476Y299279*
Y299494*
X238753Y303115D02*
X238646Y303435D01*
X238318Y303545*
X237966*
X237921Y303573*
X237801Y303813*
X237797Y303825*
X237677Y304425*
X237676Y304435*
Y305494*
X237580Y305590*
X237128Y305703*
X236793Y305591*
X236696Y305494*
Y303835*
X236681Y303800*
X236441Y303560*
X236406Y303545*
X234374*
X234045Y303435*
X233938Y303115*
X234045Y302794*
X234374Y302685*
X236406*
X236428Y302680*
X236668Y302560*
X236696Y302515*
Y299155*
X236694Y299143*
X236574Y298663*
X236573Y298659*
X236453Y298299*
X236433Y298273*
X236073Y298033*
X236046Y298025*
X235086*
X235058Y298033*
X234698Y298273*
X234690Y298280*
X234330Y298640*
X234321Y298653*
X234088Y299118*
X233874Y299225*
X233541*
X233216Y299008*
Y298568*
X233682Y297753*
X234386Y297401*
X234975Y297165*
X235682*
X236511Y297283*
X237210Y297633*
X237558Y298212*
X237676Y299039*
Y302155*
X237678Y302171*
X237798Y302531*
X237834Y302563*
X238312Y302683*
X238646Y302794*
X238753Y303115*
X231915Y300475D02*
X231678Y301660D01*
X231204Y302726*
X230733Y303197*
X230265Y303548*
X229677Y303666*
X228966Y303784*
X228255Y303666*
X227667Y303548*
X227199Y303197*
X226728Y302726*
X226254Y301660*
X226016Y300470*
Y300165*
X230766*
X230816Y300115*
X230815Y300108*
X230695Y299268*
X230689Y299249*
X230329Y298649*
X230317Y298636*
X229717Y298156*
X229694Y298146*
X228974Y298026*
X228966Y298025*
X228246*
X228236Y298026*
X227636Y298146*
X227618Y298153*
X227258Y298393*
X227256Y298395*
X226782Y298750*
X226446Y298862*
X226125Y298755*
X226018Y298435*
X226128Y298105*
X226710Y297640*
X228134Y297165*
X229676*
X230261Y297399*
X230733Y297753*
X231205Y298225*
X231678Y299171*
X231915Y300475*
X230886Y301025D02*
X227046D01*
X226998Y301091*
X227238Y301811*
X227246Y301825*
X227606Y302305*
X227614Y302314*
X228214Y302794*
X228237Y302804*
X228237D02*
X228957Y302924D01*
X228957D02*
X228974D01*
X229694Y302804*
X229717Y302794*
X230317Y302314*
X230326Y302305*
X230686Y301825*
X230693Y301811*
X230933Y301091*
X230886Y301025*
X224713Y303115D02*
X224606Y303435D01*
X224278Y303545*
X222656*
Y302875*
X222606Y302825*
X222246*
X222196Y302875*
Y302967*
X221620Y303312*
X221618Y303313*
X221265Y303549*
X220325Y303784*
X220325D02*
X219747Y303668D01*
X219284Y303321*
X218933Y302737*
X218817Y302037*
X218928Y301594*
X219248Y301487*
X219687Y301597*
X219796Y301923*
Y302395*
X219801Y302417*
X219921Y302657*
X219943Y302680*
X220423Y302920*
X220462Y302922*
X220822Y302802*
X220828Y302800*
X221308Y302560*
X221321Y302550*
X221919Y301952*
X222638Y301353*
X222656Y301315*
Y298555*
X222650Y298533*
X222530Y298293*
X222502Y298268*
X222142Y298148*
X222126Y298145*
X221766*
X221757Y298146*
X221757D02*
X221042Y298265D01*
X220932*
X220484Y298153*
X220378Y297835*
X220484Y297517*
X220932Y297405*
X224278*
X224606Y297514*
X224713Y297835*
X224606Y298155*
X224286Y298262*
X223942Y298148*
X223903Y298150*
X223663Y298270*
X223636Y298315*
Y302275*
X223644Y302303*
X223884Y302663*
X223926Y302685*
X224505*
X224602Y302782*
X224713Y303115*
X218900Y301704D02*
Y302537D01*
X219000Y301570D02*
Y302848D01*
X219100Y301536D02*
Y303015D01*
X219200Y301503D02*
Y303182D01*
X219300Y301500D02*
Y303333D01*
X219400Y301525D02*
Y303408D01*
X219500Y301550D02*
Y303483D01*
X219600Y301575D02*
Y303558D01*
X219700Y301636D02*
Y303633D01*
X219800Y302415D02*
Y303679D01*
X219900Y302615D02*
Y303699D01*
X220000Y302708D02*
Y303719D01*
X220100Y302758D02*
Y303739D01*
X220200Y302808D02*
Y303759D01*
X220300Y302858D02*
Y303779D01*
X220400Y297770D02*
Y297900D01*
Y302908D02*
Y303765D01*
X220500Y297513D02*
Y298157D01*
Y302910D02*
Y303740D01*
X220600Y297488D02*
Y298182D01*
Y302876D02*
Y303715D01*
X220700Y297463D02*
Y298207D01*
Y302843D02*
Y303690D01*
X220800Y297438D02*
Y298232D01*
Y302810D02*
Y303665D01*
X220900Y297413D02*
Y298257D01*
Y302764D02*
Y303640D01*
X221000Y297405D02*
Y298265D01*
Y302714D02*
Y303615D01*
X221100Y297405D02*
Y298255D01*
Y302664D02*
Y303590D01*
X221200Y297405D02*
Y298239D01*
Y302614D02*
Y303565D01*
X221300Y297405D02*
Y298222D01*
Y302564D02*
Y303525D01*
X221400Y297405D02*
Y298205D01*
Y302471D02*
Y303459D01*
X221500Y297405D02*
Y298189D01*
Y302371D02*
Y303392D01*
X221600Y297405D02*
Y298172D01*
Y302271D02*
Y303325D01*
X221700Y297405D02*
Y298155D01*
Y302171D02*
Y303264D01*
X221800Y297405D02*
Y298145D01*
Y302071D02*
Y303204D01*
X221900Y297405D02*
Y298145D01*
Y301971D02*
Y303144D01*
X222000Y297405D02*
Y298145D01*
Y301885D02*
Y303084D01*
X222100Y297405D02*
Y298145D01*
Y301801D02*
Y303024D01*
X222200Y297405D02*
Y298167D01*
Y301718D02*
Y302855D01*
X222300Y297405D02*
Y298200D01*
Y301635D02*
Y302825D01*
X222400Y297405D02*
Y298234D01*
Y301551D02*
Y302825D01*
X222500Y297405D02*
Y298267D01*
Y301468D02*
Y302825D01*
X222600Y297405D02*
Y298432D01*
Y301385D02*
Y302825D01*
X222700Y297405D02*
Y303545D01*
X222800Y297405D02*
Y303545D01*
X222900Y297405D02*
Y303545D01*
X223000Y297405D02*
Y303545D01*
X223100Y297405D02*
Y303545D01*
X223200Y297405D02*
Y303545D01*
X223300Y297405D02*
Y303545D01*
X223400Y297405D02*
Y303545D01*
X223500Y297405D02*
Y303545D01*
X223600Y297405D02*
Y303545D01*
X223700Y297405D02*
Y298252D01*
Y302387D02*
Y303545D01*
X223800Y297405D02*
Y298202D01*
Y302537D02*
Y303545D01*
X223900Y297405D02*
Y298152D01*
Y302678D02*
Y303545D01*
X224000Y297405D02*
Y298167D01*
Y302685D02*
Y303545D01*
X224100Y297405D02*
Y298200D01*
Y302685D02*
Y303545D01*
X224200Y297405D02*
Y298234D01*
Y302685D02*
Y303545D01*
X224300Y297412D02*
Y298257D01*
Y302685D02*
Y303537D01*
X224400Y297446D02*
Y298224D01*
Y302685D02*
Y303504D01*
X224500Y297479D02*
Y298191D01*
Y302685D02*
Y303471D01*
X224600Y297512D02*
Y298157D01*
Y302780D02*
Y303437D01*
X224700Y297796D02*
Y297874D01*
Y303076D02*
Y303154D01*
X226100Y298190D02*
Y298680D01*
Y300165D02*
Y300891D01*
X226200Y298048D02*
Y298780D01*
Y300165D02*
Y301391D01*
X226300Y297968D02*
Y298814D01*
Y300165D02*
Y301764D01*
X226400Y297888D02*
Y298847D01*
Y300165D02*
Y301989D01*
X226500Y297808D02*
Y298844D01*
Y300165D02*
Y302214D01*
X226600Y297728D02*
Y298811D01*
Y300165D02*
Y302439D01*
X226700Y297648D02*
Y298777D01*
Y300165D02*
Y302664D01*
X226800Y297610D02*
Y298737D01*
Y300165D02*
Y302799D01*
X226900Y297576D02*
Y298662D01*
Y300165D02*
Y302899D01*
X227000Y297543D02*
Y298587D01*
Y300165D02*
Y301055D01*
Y301096D02*
Y302999D01*
X227100Y297510D02*
Y298512D01*
Y300165D02*
Y301025D01*
Y301396D02*
Y303099D01*
X227200Y297476D02*
Y298437D01*
Y300165D02*
Y301025D01*
Y301696D02*
Y303198D01*
X227300Y297443D02*
Y298365D01*
Y300165D02*
Y301025D01*
Y301897D02*
Y303273D01*
X227400Y297410D02*
Y298299D01*
Y300165D02*
Y301025D01*
Y302031D02*
Y303348D01*
X227500Y297376D02*
Y298232D01*
Y300165D02*
Y301025D01*
Y302164D02*
Y303423D01*
X227600Y297343D02*
Y298165D01*
Y300165D02*
Y301025D01*
Y302297D02*
Y303498D01*
X227700Y297310D02*
Y298133D01*
Y300165D02*
Y301025D01*
Y302382D02*
Y303555D01*
X227800Y297276D02*
Y298113D01*
Y300165D02*
Y301025D01*
Y302462D02*
Y303575D01*
X227900Y297243D02*
Y298093D01*
Y300165D02*
Y301025D01*
Y302542D02*
Y303595D01*
X228000Y297210D02*
Y298073D01*
Y300165D02*
Y301025D01*
Y302622D02*
Y303615D01*
X228100Y297176D02*
Y298053D01*
Y300165D02*
Y301025D01*
Y302702D02*
Y303635D01*
X228200Y297165D02*
Y298033D01*
Y300165D02*
Y301025D01*
Y302782D02*
Y303655D01*
X228300Y297165D02*
Y298025D01*
Y300165D02*
Y301025D01*
Y302815D02*
Y303673D01*
X228400Y297165D02*
Y298025D01*
Y300165D02*
Y301025D01*
Y302831D02*
Y303690D01*
X228500Y297165D02*
Y298025D01*
Y300165D02*
Y301025D01*
Y302848D02*
Y303707D01*
X228600Y297165D02*
Y298025D01*
Y300165D02*
Y301025D01*
Y302865D02*
Y303723D01*
X228700Y297165D02*
Y298025D01*
Y300165D02*
Y301025D01*
Y302881D02*
Y303740D01*
X228800Y297165D02*
Y298025D01*
Y300165D02*
Y301025D01*
Y302898D02*
Y303757D01*
X228900Y297165D02*
Y298025D01*
Y300165D02*
Y301025D01*
Y302915D02*
Y303773D01*
X229000Y297165D02*
Y298030D01*
Y300165D02*
Y301025D01*
Y302920D02*
Y303779D01*
X229100Y297165D02*
Y298047D01*
Y300165D02*
Y301025D01*
Y302903D02*
Y303762D01*
X229200Y297165D02*
Y298063D01*
Y300165D02*
Y301025D01*
Y302887D02*
Y303745D01*
X229300Y297165D02*
Y298080D01*
Y300165D02*
Y301025D01*
Y302870D02*
Y303729D01*
X229400Y297165D02*
Y298097D01*
Y300165D02*
Y301025D01*
Y302853D02*
Y303712D01*
X229500Y297165D02*
Y298113D01*
Y300165D02*
Y301025D01*
Y302837D02*
Y303695D01*
X229600Y297165D02*
Y298130D01*
Y300165D02*
Y301025D01*
Y302820D02*
Y303679D01*
X229700Y297175D02*
Y298147D01*
Y300165D02*
Y301025D01*
Y302803D02*
Y303661D01*
X229800Y297215D02*
Y298222D01*
Y300165D02*
Y301025D01*
Y302728D02*
Y303641D01*
X229900Y297255D02*
Y298302D01*
Y300165D02*
Y301025D01*
Y302648D02*
Y303621D01*
X230000Y297295D02*
Y298382D01*
Y300165D02*
Y301025D01*
Y302568D02*
Y303601D01*
X230100Y297335D02*
Y298462D01*
Y300165D02*
Y301025D01*
Y302488D02*
Y303581D01*
X230200Y297375D02*
Y298542D01*
Y300165D02*
Y301025D01*
Y302408D02*
Y303561D01*
X230300Y297428D02*
Y298622D01*
Y300165D02*
Y301025D01*
Y302328D02*
Y303522D01*
X230400Y297503D02*
Y298768D01*
Y300165D02*
Y301025D01*
Y302206D02*
Y303447D01*
X230500Y297578D02*
Y298935D01*
Y300165D02*
Y301025D01*
Y302073D02*
Y303372D01*
X230600Y297653D02*
Y299102D01*
Y300165D02*
Y301025D01*
Y301939D02*
Y303297D01*
X230700Y297728D02*
Y299301D01*
Y300165D02*
Y301025D01*
Y301790D02*
Y303222D01*
X230800Y297820D02*
Y300001D01*
Y300151D02*
Y301025D01*
Y301490D02*
Y303130D01*
X230900Y297920D02*
Y301027D01*
Y301190D02*
Y303030D01*
X231000Y298020D02*
Y302930D01*
X231100Y298120D02*
Y302830D01*
X231200Y298220D02*
Y302730D01*
X231300Y298415D02*
Y302510D01*
X231400Y298615D02*
Y302285D01*
X231500Y298815D02*
Y302060D01*
X231600Y299015D02*
Y301835D01*
X231700Y299293D02*
Y301549D01*
X231800Y299843D02*
Y301049D01*
X231900Y300393D02*
Y300549D01*
X233300Y298421D02*
Y299064D01*
X233400Y298246D02*
Y299131D01*
X233500Y298071D02*
Y299198D01*
X233600Y297896D02*
Y299225D01*
X233700Y297744D02*
Y299225D01*
X233800Y297694D02*
Y299225D01*
X233900Y297644D02*
Y299212D01*
X234000Y297594D02*
Y299162D01*
Y302930D02*
Y303300D01*
X234100Y297544D02*
Y299095D01*
Y302776D02*
Y303454D01*
X234200Y297494D02*
Y298895D01*
Y302743D02*
Y303487D01*
X234300Y297444D02*
Y298695D01*
Y302710D02*
Y303520D01*
X234400Y297395D02*
Y298570D01*
Y302685D02*
Y303545D01*
X234500Y297355D02*
Y298470D01*
Y302685D02*
Y303545D01*
X234600Y297315D02*
Y298370D01*
Y302685D02*
Y303545D01*
X234700Y297275D02*
Y298272D01*
Y302685D02*
Y303545D01*
X234800Y297235D02*
Y298205D01*
Y302685D02*
Y303545D01*
X234900Y297195D02*
Y298139D01*
Y302685D02*
Y303545D01*
X235000Y297165D02*
Y298072D01*
Y302685D02*
Y303545D01*
X235100Y297165D02*
Y298025D01*
Y302685D02*
Y303545D01*
X235200Y297165D02*
Y298025D01*
Y302685D02*
Y303545D01*
X235300Y297165D02*
Y298025D01*
Y302685D02*
Y303545D01*
X235400Y297165D02*
Y298025D01*
Y302685D02*
Y303545D01*
X235500Y297165D02*
Y298025D01*
Y302685D02*
Y303545D01*
X235600Y297165D02*
Y298025D01*
Y302685D02*
Y303545D01*
X235700Y297168D02*
Y298025D01*
Y302685D02*
Y303545D01*
X235800Y297182D02*
Y298025D01*
Y302685D02*
Y303545D01*
X235900Y297196D02*
Y298025D01*
Y302685D02*
Y303545D01*
X236000Y297210D02*
Y298025D01*
Y302685D02*
Y303545D01*
X236100Y297225D02*
Y298051D01*
Y302685D02*
Y303545D01*
X236200Y297239D02*
Y298118D01*
Y302685D02*
Y303545D01*
X236300Y297253D02*
Y298184D01*
Y302685D02*
Y303545D01*
X236400Y297268D02*
Y298251D01*
Y302685D02*
Y303545D01*
X236500Y297282D02*
Y298440D01*
Y302644D02*
Y303619D01*
X236600Y297328D02*
Y298766D01*
Y302594D02*
Y303719D01*
X236700Y297378D02*
Y305499D01*
X236800Y297428D02*
Y305594D01*
X236900Y297478D02*
Y305627D01*
X237000Y297528D02*
Y305660D01*
X237100Y297578D02*
Y305694D01*
X237200Y297628D02*
Y305685D01*
X237300Y297783D02*
Y305660D01*
X237400Y297949D02*
Y305635D01*
X237500Y298116D02*
Y305610D01*
X237600Y298508D02*
Y305570D01*
X237700Y302236D02*
Y304309D01*
X237800Y302535D02*
Y303815D01*
X237900Y302580D02*
Y303615D01*
X238000Y302605D02*
Y303545D01*
X238100Y302630D02*
Y303545D01*
X238200Y302655D02*
Y303545D01*
X238300Y302680D02*
Y303545D01*
X238400Y302712D02*
Y303517D01*
X238500Y302746D02*
Y303484D01*
X238600Y302779D02*
Y303451D01*
X238700Y302956D02*
Y303274D01*
X240100Y298729D02*
Y299341D01*
X240200Y298191D02*
Y299888D01*
X240300Y298091D02*
Y300013D01*
Y301798D02*
Y301821D01*
Y303449D02*
Y303472D01*
X240400Y297991D02*
Y300138D01*
Y301598D02*
Y302521D01*
Y302749D02*
Y303672D01*
X240500Y297891D02*
Y300263D01*
Y301573D02*
Y303707D01*
X240600Y297791D02*
Y300388D01*
Y301548D02*
Y303740D01*
X240700Y297719D02*
Y300466D01*
Y301523D02*
Y303774D01*
X240800Y297662D02*
Y300516D01*
Y301498D02*
Y303785D01*
X240900Y297604D02*
Y300566D01*
Y301485D02*
Y303785D01*
X241000Y297547D02*
Y300616D01*
Y301485D02*
Y303785D01*
X241100Y297490D02*
Y298772D01*
Y299236D02*
Y300666D01*
Y301485D02*
Y303785D01*
X241200Y297433D02*
Y298490D01*
Y299477D02*
Y300716D01*
Y301488D02*
Y303770D01*
X241300Y297376D02*
Y298390D01*
Y299627D02*
Y300766D01*
Y301538D02*
Y303655D01*
X241400Y297319D02*
Y298290D01*
Y299777D02*
Y300794D01*
Y301701D02*
Y303455D01*
X241500Y297280D02*
Y298232D01*
Y299820D02*
Y300806D01*
Y302201D02*
Y303446D01*
X241600Y297270D02*
Y298182D01*
Y299845D02*
Y300819D01*
Y302417D02*
Y303496D01*
X241700Y297260D02*
Y298132D01*
Y299870D02*
Y300831D01*
Y302567D02*
Y303546D01*
X241800Y297250D02*
Y298082D01*
Y299895D02*
Y300844D01*
Y302685D02*
Y303572D01*
X241900Y297240D02*
Y298032D01*
Y299920D02*
Y300856D01*
Y302710D02*
Y303597D01*
X242000Y297230D02*
Y298025D01*
Y299938D02*
Y300869D01*
Y302735D02*
Y303622D01*
X242100Y297220D02*
Y298025D01*
Y299955D02*
Y300881D01*
Y302760D02*
Y303647D01*
X242200Y297210D02*
Y298025D01*
Y299971D02*
Y300894D01*
Y302785D02*
Y303670D01*
X242300Y297200D02*
Y298025D01*
Y299988D02*
Y300907D01*
Y302809D02*
Y303687D01*
X242400Y297190D02*
Y298025D01*
Y300005D02*
Y300921D01*
Y302829D02*
Y303703D01*
X242500Y297180D02*
Y298025D01*
Y300021D02*
Y300935D01*
Y302849D02*
Y303720D01*
X242600Y297170D02*
Y298025D01*
Y300038D02*
Y300949D01*
Y302869D02*
Y303737D01*
X242700Y297173D02*
Y298032D01*
Y300052D02*
Y300964D01*
Y302889D02*
Y303753D01*
X242800Y297188D02*
Y298046D01*
Y300065D02*
Y300978D01*
Y302909D02*
Y303770D01*
X242900Y297202D02*
Y298061D01*
Y300077D02*
Y300992D01*
Y302923D02*
Y303783D01*
X243000Y297216D02*
Y298075D01*
Y300090D02*
Y301006D01*
Y302903D02*
Y303772D01*
X243100Y297230D02*
Y298089D01*
Y300102D02*
Y301021D01*
Y302883D02*
Y303761D01*
X243200Y297245D02*
Y298104D01*
Y300115D02*
Y301037D01*
Y302863D02*
Y303750D01*
X243300Y297259D02*
Y298118D01*
Y300127D02*
Y301053D01*
Y302843D02*
Y303739D01*
X243400Y297273D02*
Y298132D01*
Y300140D02*
Y301070D01*
Y302823D02*
Y303728D01*
X243500Y297289D02*
Y298147D01*
Y300152D02*
Y301087D01*
Y302803D02*
Y303716D01*
X243600Y297309D02*
Y298187D01*
Y300165D02*
Y301103D01*
Y302770D02*
Y303705D01*
X243700Y297329D02*
Y298227D01*
Y300194D02*
Y301120D01*
Y302736D02*
Y303694D01*
X243800Y297349D02*
Y298267D01*
Y300222D02*
Y301137D01*
Y302703D02*
Y303683D01*
X243900Y297369D02*
Y298307D01*
Y300251D02*
Y301186D01*
Y302644D02*
Y303672D01*
X244000Y297389D02*
Y298347D01*
Y300280D02*
Y301336D01*
Y302494D02*
Y303638D01*
X244100Y297418D02*
Y298387D01*
Y300308D02*
Y301486D01*
Y302344D02*
Y303581D01*
X244200Y297468D02*
Y298516D01*
Y300337D02*
Y301740D01*
Y302090D02*
Y303524D01*
X244300Y297518D02*
Y298666D01*
Y300365D02*
Y303466D01*
X244400Y297471D02*
Y298937D01*
Y300394D02*
Y303409D01*
X244500Y297371D02*
Y299512D01*
Y300480D02*
Y303352D01*
X244600Y297271D02*
Y299705D01*
Y300580D02*
Y303295D01*
X244700Y297171D02*
Y299705D01*
Y300680D02*
Y303238D01*
X244800Y297165D02*
Y299705D01*
Y300780D02*
Y303147D01*
X244900Y297165D02*
Y299705D01*
Y300880D02*
Y302981D01*
X245000Y297165D02*
Y299705D01*
Y300980D02*
Y302814D01*
X245100Y297186D02*
Y299684D01*
Y301378D02*
Y302647D01*
X245200Y297219D02*
Y299651D01*
Y301778D02*
Y302125D01*
X245300Y297252D02*
Y299617D01*
X245400Y297376D02*
Y298121D01*
Y298748D02*
Y299570D01*
X246600Y297650D02*
Y298020D01*
X246700Y297484D02*
Y298186D01*
X246800Y297434D02*
Y298236D01*
X246900Y297405D02*
Y298265D01*
X247000Y297405D02*
Y298265D01*
X247100Y297405D02*
Y298265D01*
X247200Y297405D02*
Y298265D01*
X247300Y297405D02*
Y298339D01*
X247400Y297405D02*
Y298439D01*
X247500Y297405D02*
Y301806D01*
X247600Y297405D02*
Y302206D01*
X247700Y297405D02*
Y302606D01*
X247800Y297405D02*
Y302799D01*
X247900Y297405D02*
Y302899D01*
X248000Y297405D02*
Y302999D01*
X248100Y297405D02*
Y303099D01*
X248200Y297405D02*
Y303199D01*
X248300Y297405D02*
Y303299D01*
X248400Y297405D02*
Y303356D01*
X248500Y297640D02*
Y299106D01*
Y300518D02*
Y301392D01*
Y301538D02*
Y303406D01*
X248600Y297740D02*
Y298973D01*
Y300538D02*
Y301385D01*
Y301935D02*
Y303456D01*
X248700Y297731D02*
Y298839D01*
Y300555D02*
Y301385D01*
Y302135D02*
Y303506D01*
X248800Y297636D02*
Y298706D01*
Y300571D02*
Y301385D01*
Y302335D02*
Y303556D01*
X248900Y297603D02*
Y298612D01*
Y300588D02*
Y301387D01*
Y302468D02*
Y303606D01*
X249000Y297570D02*
Y298562D01*
Y300605D02*
Y301412D01*
Y302543D02*
Y303656D01*
X249100Y297536D02*
Y298512D01*
Y300621D02*
Y301437D01*
Y302618D02*
Y303678D01*
X249200Y297486D02*
Y298462D01*
Y300638D02*
Y301462D01*
Y302693D02*
Y303692D01*
X249300Y297419D02*
Y298412D01*
Y300645D02*
Y301487D01*
Y302768D02*
Y303706D01*
X249400Y297352D02*
Y298371D01*
Y300645D02*
Y301505D01*
Y302815D02*
Y303721D01*
X249500Y297286D02*
Y298337D01*
Y300645D02*
Y301505D01*
Y302840D02*
Y303735D01*
X249600Y297274D02*
Y298304D01*
Y300645D02*
Y301505D01*
Y302865D02*
Y303749D01*
X249700Y297264D02*
Y298271D01*
Y300645D02*
Y301505D01*
Y302890D02*
Y303764D01*
X249800Y297254D02*
Y298237D01*
Y300645D02*
Y301505D01*
Y302915D02*
Y303778D01*
X249900Y297244D02*
Y298204D01*
Y300639D02*
Y301505D01*
Y302919D02*
Y303780D01*
X250000Y297234D02*
Y298171D01*
Y300626D02*
Y301505D01*
Y302908D02*
Y303772D01*
X250100Y297224D02*
Y298141D01*
Y300614D02*
Y301503D01*
Y302897D02*
Y303764D01*
X250200Y297214D02*
Y298121D01*
Y300601D02*
Y301493D01*
Y302886D02*
Y303755D01*
X250300Y297204D02*
Y298101D01*
Y300589D02*
Y301483D01*
Y302875D02*
Y303747D01*
X250400Y297194D02*
Y298081D01*
Y300576D02*
Y301473D01*
Y302864D02*
Y303739D01*
X250500Y297184D02*
Y298061D01*
Y300564D02*
Y301463D01*
Y302853D02*
Y303730D01*
X250600Y297174D02*
Y298041D01*
Y300551D02*
Y301453D01*
Y302841D02*
Y303722D01*
X250700Y297167D02*
Y298027D01*
Y300539D02*
Y301443D01*
Y302830D02*
Y303714D01*
X250800Y297180D02*
Y298052D01*
Y300526D02*
Y301433D01*
Y302819D02*
Y303705D01*
X250900Y297192D02*
Y298077D01*
Y300477D02*
Y301423D01*
Y302808D02*
Y303697D01*
X251000Y297205D02*
Y298102D01*
Y300417D02*
Y301413D01*
Y302774D02*
Y303689D01*
X251100Y297217D02*
Y298127D01*
Y300357D02*
Y301403D01*
Y302724D02*
Y303680D01*
X251200Y297230D02*
Y298158D01*
Y300297D02*
Y301393D01*
Y302674D02*
Y303672D01*
X251300Y297242D02*
Y298224D01*
Y300237D02*
Y301369D01*
Y302624D02*
Y303652D01*
X251400Y297255D02*
Y298291D01*
Y300177D02*
Y301312D01*
Y302574D02*
Y303602D01*
X251500Y297267D02*
Y298358D01*
Y300091D02*
Y301255D01*
Y302524D02*
Y303552D01*
X251600Y297280D02*
Y298456D01*
Y299991D02*
Y301198D01*
Y302474D02*
Y303502D01*
X251700Y297331D02*
Y298606D01*
Y299891D02*
Y301141D01*
Y302424D02*
Y303452D01*
X251800Y297398D02*
Y298756D01*
Y299791D02*
Y301084D01*
Y302374D02*
Y303402D01*
X251900Y297465D02*
Y299126D01*
Y299424D02*
Y301026D01*
Y302324D02*
Y303352D01*
X252000Y297531D02*
Y300969D01*
Y302274D02*
Y303302D01*
X252100Y297598D02*
Y300908D01*
Y302224D02*
Y303252D01*
X252200Y297665D02*
Y300788D01*
Y302205D02*
Y303202D01*
X252300Y297731D02*
Y300668D01*
Y302205D02*
Y303152D01*
X252400Y297838D02*
Y300548D01*
Y302260D02*
Y303102D01*
X252500Y297963D02*
Y300428D01*
Y302360D02*
Y303003D01*
X252600Y298088D02*
Y300308D01*
Y302536D02*
Y302853D01*
X252700Y298213D02*
Y300132D01*
X252800Y298352D02*
Y299732D01*
X252900Y299152D02*
Y299332D01*
X254300Y297590D02*
Y298080D01*
Y305150D02*
Y305640D01*
X254400Y297474D02*
Y298196D01*
Y305034D02*
Y305756D01*
X254500Y297424D02*
Y298246D01*
Y304984D02*
Y305806D01*
X254600Y297405D02*
Y298265D01*
Y304965D02*
Y305825D01*
X254700Y297405D02*
Y298265D01*
Y304965D02*
Y305825D01*
X254800Y297405D02*
Y298265D01*
Y304965D02*
Y305825D01*
X254900Y297405D02*
Y298265D01*
Y304965D02*
Y305825D01*
X255000Y297405D02*
Y298265D01*
Y304965D02*
Y305825D01*
X255100Y297405D02*
Y298265D01*
Y304965D02*
Y305825D01*
X255200Y297405D02*
Y298352D01*
Y304878D02*
Y305825D01*
X255300Y297405D02*
Y305825D01*
X255400Y297405D02*
Y305825D01*
X255500Y297405D02*
Y305825D01*
X255600Y297405D02*
Y305825D01*
X255700Y297405D02*
Y305825D01*
X255800Y297405D02*
Y305825D01*
X255900Y297405D02*
Y305825D01*
X256000Y297405D02*
Y305825D01*
X256100Y297405D02*
Y305825D01*
X256200Y297405D02*
Y305825D01*
X256300Y297405D02*
Y298510D01*
Y303878D02*
Y305800D01*
X256400Y297405D02*
Y298410D01*
Y303767D02*
Y305775D01*
X256500Y297405D02*
Y298310D01*
Y303454D02*
Y305750D01*
X256600Y297405D02*
Y298265D01*
Y303142D02*
Y305725D01*
X256700Y297405D02*
Y298265D01*
Y302829D02*
Y305643D01*
X256800Y297405D02*
Y298265D01*
Y302517D02*
Y305493D01*
X256900Y297405D02*
Y298265D01*
Y302204D02*
Y305319D01*
X257000Y297448D02*
Y298222D01*
Y301892D02*
Y305044D01*
X257100Y297498D02*
Y298172D01*
Y301579D02*
Y304769D01*
X257200Y297736D02*
Y297934D01*
Y301267D02*
Y304494D01*
X257300Y300954D02*
Y304219D01*
X257400Y300677D02*
Y303944D01*
X257500Y300417D02*
Y303669D01*
X257600Y300157D02*
Y303394D01*
X257700Y299897D02*
Y303119D01*
X257800Y299637D02*
Y302844D01*
X257900Y299377D02*
Y302569D01*
X258000Y299090D02*
Y302294D01*
X258100Y298936D02*
Y302019D01*
X258200Y298903D02*
Y301744D01*
X258300Y298870D02*
Y301469D01*
X258400Y298859D02*
Y301159D01*
X258500Y298892D02*
Y301352D01*
X258600Y298926D02*
Y301609D01*
X258700Y298967D02*
Y301892D01*
X258800Y299117D02*
Y302175D01*
X258900Y299267D02*
Y302459D01*
X259000Y299503D02*
Y302742D01*
X259100Y299763D02*
Y303025D01*
X259200Y300023D02*
Y303309D01*
X259300Y300283D02*
Y303592D01*
X259400Y300543D02*
Y303875D01*
X259500Y300803D02*
Y304159D01*
X259600Y301106D02*
Y304442D01*
X259700Y297590D02*
Y298080D01*
Y301419D02*
Y304725D01*
X259800Y297431D02*
Y298196D01*
Y301731D02*
Y305009D01*
X259900Y297405D02*
Y298246D01*
Y302044D02*
Y305292D01*
X260000Y297405D02*
Y298265D01*
Y302356D02*
Y305536D01*
X260100Y297405D02*
Y298265D01*
Y302669D02*
Y305686D01*
X260200Y297405D02*
Y298265D01*
Y302981D02*
Y305825D01*
X260300Y297405D02*
Y298265D01*
Y303294D02*
Y305825D01*
X260400Y297405D02*
Y298265D01*
Y303606D02*
Y305825D01*
X260500Y297405D02*
Y298392D01*
Y303878D02*
Y305825D01*
X260600Y297405D02*
Y305825D01*
X260700Y297405D02*
Y305825D01*
X260800Y297405D02*
Y305825D01*
X260900Y297405D02*
Y305825D01*
X261000Y297405D02*
Y305825D01*
X261100Y297405D02*
Y305825D01*
X261200Y297405D02*
Y305825D01*
X261300Y297405D02*
Y305825D01*
X261400Y297405D02*
Y305825D01*
X261500Y297405D02*
Y305825D01*
X261600Y297405D02*
Y298455D01*
Y304775D02*
Y305825D01*
X261700Y297405D02*
Y298272D01*
Y304958D02*
Y305825D01*
X261800Y297405D02*
Y298265D01*
Y304965D02*
Y305825D01*
X261900Y297405D02*
Y298265D01*
Y304965D02*
Y305825D01*
X262000Y297405D02*
Y298265D01*
Y304965D02*
Y305825D01*
X262100Y297405D02*
Y298265D01*
Y304965D02*
Y305825D01*
X262200Y297408D02*
Y298265D01*
Y304965D02*
Y305822D01*
X262300Y297458D02*
Y298265D01*
Y304965D02*
Y305772D01*
X262400Y297508D02*
Y298170D01*
Y305060D02*
Y305722D01*
X262500Y297796D02*
Y297874D01*
Y305356D02*
Y305434D01*
X267700Y302990D02*
Y303240D01*
X267800Y302774D02*
Y303456D01*
X267900Y302724D02*
Y303506D01*
X268000Y302676D02*
Y303545D01*
X268100Y302643D02*
Y303545D01*
X268200Y302610D02*
Y303545D01*
X268300Y302576D02*
Y303545D01*
X268400Y302511D02*
Y303545D01*
X268500Y302411D02*
Y303545D01*
X268600Y302311D02*
Y303545D01*
X268700Y302126D02*
Y303545D01*
X268800Y301935D02*
Y303545D01*
X268900Y301743D02*
Y303545D01*
X269000Y301552D02*
Y303545D01*
X269100Y301361D02*
Y303545D01*
X269200Y301169D02*
Y303545D01*
X269300Y300978D02*
Y303545D01*
X269400Y300787D02*
Y303545D01*
X269500Y300596D02*
Y303545D01*
X269600Y300404D02*
Y303545D01*
X269700Y300213D02*
Y303545D01*
X269800Y300022D02*
Y303545D01*
X269900Y299830D02*
Y302139D01*
Y302685D02*
Y303545D01*
X270000Y299639D02*
Y301947D01*
Y302685D02*
Y303545D01*
X270100Y299448D02*
Y301755D01*
Y302685D02*
Y303545D01*
X270200Y299256D02*
Y301562D01*
Y302685D02*
Y303545D01*
X270300Y296150D02*
Y296160D01*
Y299065D02*
Y301370D01*
Y302685D02*
Y303545D01*
X270400Y295850D02*
Y296460D01*
Y298874D02*
Y301178D01*
Y302708D02*
Y303522D01*
X270500Y295803D02*
Y296507D01*
Y298683D02*
Y300985D01*
Y302758D02*
Y303472D01*
X270600Y295770D02*
Y296540D01*
Y298491D02*
Y300793D01*
Y302896D02*
Y303334D01*
X270700Y295736D02*
Y296574D01*
Y298300D02*
Y300601D01*
X270800Y295725D02*
Y296585D01*
Y298109D02*
Y300408D01*
X270900Y295725D02*
Y296585D01*
Y297917D02*
Y300216D01*
X271000Y295725D02*
Y296585D01*
Y297726D02*
Y300024D01*
X271100Y295725D02*
Y296585D01*
Y297535D02*
Y299831D01*
X271200Y295725D02*
Y296585D01*
Y297343D02*
Y299639D01*
X271300Y295725D02*
Y296585D01*
Y297152D02*
Y299447D01*
X271400Y295725D02*
Y299255D01*
X271500Y295725D02*
Y299276D01*
X271600Y295725D02*
Y299526D01*
X271700Y295725D02*
Y299776D01*
X271800Y295725D02*
Y300026D01*
X271900Y295725D02*
Y300276D01*
Y302990D02*
Y303240D01*
X272000Y295725D02*
Y297815D01*
Y297855D02*
Y300526D01*
Y302774D02*
Y303456D01*
X272100Y295725D02*
Y297615D01*
Y298120D02*
Y300776D01*
Y302724D02*
Y303506D01*
X272200Y295725D02*
Y297415D01*
Y298384D02*
Y301026D01*
Y302685D02*
Y303545D01*
X272300Y295725D02*
Y297215D01*
Y298648D02*
Y301276D01*
Y302685D02*
Y303545D01*
X272400Y295725D02*
Y297015D01*
Y298913D02*
Y301526D01*
Y302685D02*
Y303545D01*
X272500Y295725D02*
Y296830D01*
Y299177D02*
Y301776D01*
Y302685D02*
Y303545D01*
X272600Y295725D02*
Y296730D01*
Y299441D02*
Y302026D01*
Y302685D02*
Y303545D01*
X272700Y295725D02*
Y296630D01*
Y299705D02*
Y303545D01*
X272800Y295725D02*
Y296585D01*
Y299970D02*
Y303545D01*
X272900Y295725D02*
Y296585D01*
Y300234D02*
Y303545D01*
X273000Y295725D02*
Y296585D01*
Y300498D02*
Y303545D01*
X273100Y295725D02*
Y296585D01*
Y300763D02*
Y303545D01*
X273200Y295725D02*
Y296585D01*
Y301027D02*
Y303545D01*
X273300Y295725D02*
Y296585D01*
Y301291D02*
Y303545D01*
X273400Y295725D02*
Y296585D01*
Y301555D02*
Y303545D01*
X273500Y295725D02*
Y296585D01*
Y301820D02*
Y303545D01*
X273600Y295725D02*
Y296585D01*
Y302084D02*
Y303545D01*
X273700Y295725D02*
Y296585D01*
Y302356D02*
Y303545D01*
X273800Y295725D02*
Y296585D01*
Y302655D02*
Y303545D01*
X273900Y295725D02*
Y296585D01*
Y302685D02*
Y303545D01*
X274000Y295748D02*
Y296562D01*
Y302685D02*
Y303545D01*
X274100Y295798D02*
Y296512D01*
Y302685D02*
Y303545D01*
X274200Y295936D02*
Y296374D01*
Y302685D02*
Y303545D01*
X274300Y302685D02*
Y303545D01*
X274400Y302728D02*
Y303502D01*
X274500Y302778D02*
Y303452D01*
X274600Y303016D02*
Y303214D01*
X275500Y297710D02*
Y297960D01*
Y303230D02*
Y303480D01*
X275600Y297494D02*
Y298176D01*
Y303023D02*
Y303687D01*
X275700Y297444D02*
Y298226D01*
Y302990D02*
Y303720D01*
X275800Y297405D02*
Y298265D01*
Y302956D02*
Y303754D01*
X275900Y297405D02*
Y298265D01*
Y302925D02*
Y303785D01*
X276000Y297405D02*
Y298265D01*
Y302925D02*
Y303785D01*
X276100Y297405D02*
Y298265D01*
Y302925D02*
Y303785D01*
X276200Y297405D02*
Y298265D01*
Y302925D02*
Y303785D01*
X276300Y297405D02*
Y298286D01*
Y302904D02*
Y303785D01*
X276400Y297405D02*
Y298336D01*
Y302854D02*
Y303785D01*
X276500Y297405D02*
Y298386D01*
Y302804D02*
Y303785D01*
X276600Y297405D02*
Y298516D01*
Y302732D02*
Y303785D01*
X276700Y297405D02*
Y298666D01*
Y302657D02*
Y303785D01*
X276800Y297405D02*
Y298816D01*
Y302582D02*
Y303785D01*
X276900Y297405D02*
Y298966D01*
Y302507D02*
Y303785D01*
X277000Y297405D02*
Y299116D01*
Y302432D02*
Y303785D01*
X277100Y297405D02*
Y299266D01*
Y302357D02*
Y303785D01*
X277200Y297405D02*
Y299416D01*
Y302282D02*
Y303785D01*
X277300Y297405D02*
Y299566D01*
Y302207D02*
Y303785D01*
X277400Y297405D02*
Y299716D01*
Y302132D02*
Y303785D01*
X277500Y297405D02*
Y299866D01*
Y302057D02*
Y303785D01*
X277600Y297405D02*
Y300016D01*
Y301982D02*
Y303785D01*
X277700Y297405D02*
Y300166D01*
Y301907D02*
Y303785D01*
X277800Y297405D02*
Y300316D01*
Y301832D02*
Y303785D01*
X277900Y297405D02*
Y298390D01*
Y298495D02*
Y300466D01*
Y301757D02*
Y303785D01*
X278000Y297432D02*
Y298290D01*
Y298695D02*
Y300616D01*
Y301682D02*
Y303785D01*
X278100Y297466D02*
Y298232D01*
Y298856D02*
Y300766D01*
Y301607D02*
Y303785D01*
X278200Y297499D02*
Y298182D01*
Y299016D02*
Y300916D01*
Y301532D02*
Y303785D01*
X278300Y297676D02*
Y297994D01*
Y299176D02*
Y301066D01*
Y301457D02*
Y302562D01*
Y302925D02*
Y303785D01*
X278400Y299336D02*
Y301216D01*
Y301382D02*
Y302489D01*
Y302925D02*
Y303785D01*
X278500Y299496D02*
Y302416D01*
Y302925D02*
Y303785D01*
X278600Y299656D02*
Y302342D01*
Y303020D02*
Y303785D01*
X278700Y299816D02*
Y302269D01*
Y303418D02*
Y303514D01*
X278800Y299976D02*
Y302196D01*
X278900Y300136D02*
Y302122D01*
X279000Y300296D02*
Y302049D01*
X279100Y300456D02*
Y301976D01*
X279200Y300616D02*
Y301902D01*
X279300Y300614D02*
Y301829D01*
X279400Y300529D02*
Y301756D01*
X279500Y300443D02*
Y301682D01*
X279600Y300357D02*
Y301609D01*
X279700Y300271D02*
Y301536D01*
X279800Y300186D02*
Y301462D01*
X279900Y300100D02*
Y301389D01*
X280000Y300014D02*
Y301316D01*
X280100Y299929D02*
Y301267D01*
X280200Y297405D02*
Y305825D01*
X280300Y297405D02*
Y305825D01*
X280400Y297405D02*
Y305825D01*
X280500Y297405D02*
Y305825D01*
X280600Y297405D02*
Y305825D01*
X280700Y297405D02*
Y305825D01*
X280800Y297405D02*
Y305825D01*
X280900Y297405D02*
Y305825D01*
X281000Y297405D02*
Y305825D01*
X281100Y297405D02*
Y305825D01*
X281200Y297405D02*
Y298330D01*
Y304780D02*
Y305825D01*
X281300Y297405D02*
Y298265D01*
Y304880D02*
Y305825D01*
X281400Y297405D02*
Y298265D01*
Y304965D02*
Y305825D01*
X281500Y297405D02*
Y298265D01*
Y304965D02*
Y305825D01*
X281600Y297405D02*
Y298265D01*
Y304965D02*
Y305825D01*
X281700Y297405D02*
Y298265D01*
Y304965D02*
Y305825D01*
X281800Y297405D02*
Y298265D01*
Y304965D02*
Y305825D01*
X281900Y297418D02*
Y298252D01*
Y304978D02*
Y305812D01*
X282000Y297468D02*
Y298202D01*
Y305028D02*
Y305762D01*
X282100Y297556D02*
Y298114D01*
Y305116D02*
Y305674D01*
X283500Y305510D02*
Y305851D01*
X283600Y305210D02*
Y305918D01*
X283700Y299184D02*
Y299931D01*
Y304739D02*
Y305984D01*
X283800Y298784D02*
Y300431D01*
Y303290D02*
Y306051D01*
X283900Y298504D02*
Y300753D01*
Y303136D02*
Y306065D01*
X284000Y298354D02*
Y300878D01*
Y303103D02*
Y306065D01*
X284100Y298204D02*
Y301003D01*
Y303070D02*
Y306065D01*
X284200Y298054D02*
Y301128D01*
Y303059D02*
Y306065D01*
X284300Y297904D02*
Y301253D01*
Y303092D02*
Y306030D01*
X284400Y297822D02*
Y301310D01*
Y303126D02*
Y305930D01*
X284500Y297760D02*
Y301352D01*
Y303167D02*
Y305712D01*
X284600Y297697D02*
Y299605D01*
Y299658D02*
Y301395D01*
Y303317D02*
Y305727D01*
X284700Y297635D02*
Y299005D01*
Y300058D02*
Y301438D01*
Y303467D02*
Y305760D01*
X284800Y297572D02*
Y298786D01*
Y300295D02*
Y301481D01*
Y304444D02*
Y305794D01*
X284900Y297510D02*
Y298653D01*
Y300495D02*
Y301524D01*
Y304577D02*
Y305827D01*
X285000Y297447D02*
Y298519D01*
Y300645D02*
Y301567D01*
Y304711D02*
Y305876D01*
X285100Y297385D02*
Y298392D01*
Y300670D02*
Y301610D01*
Y304838D02*
Y305926D01*
X285200Y297322D02*
Y298342D01*
Y300695D02*
Y301647D01*
Y304888D02*
Y305945D01*
X285300Y297280D02*
Y298292D01*
Y300720D02*
Y301680D01*
Y304938D02*
Y305945D01*
X285400Y297270D02*
Y298242D01*
Y300745D02*
Y301714D01*
Y304988D02*
Y305945D01*
X285500Y297260D02*
Y298192D01*
Y300771D02*
Y301747D01*
Y305038D02*
Y305946D01*
X285600Y297250D02*
Y298145D01*
Y300800D02*
Y301772D01*
Y305085D02*
Y305961D01*
X285700Y297240D02*
Y298131D01*
Y300828D02*
Y301797D01*
Y305101D02*
Y305975D01*
X285800Y297230D02*
Y298117D01*
Y300857D02*
Y301822D01*
Y305118D02*
Y305989D01*
X285900Y297220D02*
Y298102D01*
Y300885D02*
Y301847D01*
Y305135D02*
Y306004D01*
X286000Y297210D02*
Y298088D01*
Y300914D02*
Y301874D01*
Y305151D02*
Y306018D01*
X286100Y297200D02*
Y298074D01*
Y300942D02*
Y301907D01*
Y305168D02*
Y306032D01*
X286200Y297190D02*
Y298060D01*
Y300971D02*
Y301940D01*
Y305185D02*
Y306046D01*
X286300Y297180D02*
Y298045D01*
Y301000D02*
Y301974D01*
Y305201D02*
Y306061D01*
X286400Y297170D02*
Y298031D01*
Y301048D02*
Y302004D01*
Y305195D02*
Y306049D01*
X286500Y297165D02*
Y298032D01*
Y301098D02*
Y302033D01*
Y305181D02*
Y306029D01*
X286600Y297165D02*
Y298046D01*
Y301134D02*
Y302061D01*
Y305166D02*
Y306009D01*
X286700Y297165D02*
Y298061D01*
Y301156D02*
Y302090D01*
Y305152D02*
Y305989D01*
X286800Y297165D02*
Y298075D01*
Y301178D02*
Y302118D01*
Y305138D02*
Y305969D01*
X286900Y297165D02*
Y298089D01*
Y301200D02*
Y302147D01*
Y305123D02*
Y305949D01*
X287000Y297165D02*
Y298104D01*
Y301223D02*
Y302176D01*
Y305109D02*
Y305929D01*
X287100Y297165D02*
Y298118D01*
Y301245D02*
Y302204D01*
Y305095D02*
Y305909D01*
X287200Y297183D02*
Y298132D01*
Y301267D02*
Y302236D01*
Y305073D02*
Y305889D01*
X287300Y297223D02*
Y298147D01*
Y301289D02*
Y302286D01*
Y305013D02*
Y305869D01*
X287400Y297263D02*
Y298187D01*
Y301312D02*
Y302336D01*
Y304953D02*
Y305849D01*
X287500Y297303D02*
Y298227D01*
Y301334D02*
Y302386D01*
Y304893D02*
Y305829D01*
X287600Y297343D02*
Y298267D01*
Y301356D02*
Y302436D01*
Y304833D02*
Y305782D01*
X287700Y297383D02*
Y298307D01*
Y301398D02*
Y302504D01*
Y304773D02*
Y305732D01*
X287800Y297428D02*
Y298347D01*
Y301448D02*
Y302637D01*
Y304711D02*
Y305682D01*
X287900Y297478D02*
Y298387D01*
Y301498D02*
Y302771D01*
Y304564D02*
Y305632D01*
X288000Y297528D02*
Y298504D01*
Y301548D02*
Y302904D01*
Y304414D02*
Y305582D01*
X288100Y297578D02*
Y298637D01*
Y301598D02*
Y303257D01*
Y304099D02*
Y305532D01*
X288200Y297628D02*
Y298771D01*
Y301648D02*
Y305482D01*
X288300Y297598D02*
Y298941D01*
Y301698D02*
Y305432D01*
X288400Y297398D02*
Y299641D01*
Y301809D02*
Y305382D01*
X288500Y297291D02*
Y300000D01*
Y301949D02*
Y305269D01*
X288600Y297191D02*
Y300092D01*
Y302089D02*
Y305094D01*
X288700Y297165D02*
Y300117D01*
Y302229D02*
Y304919D01*
X288800Y297165D02*
Y300142D01*
Y302369D02*
Y304744D01*
X288900Y297165D02*
Y300167D01*
Y302509D02*
Y304569D01*
X289000Y297188D02*
Y300171D01*
Y302900D02*
Y304212D01*
X289100Y297238D02*
Y300138D01*
Y303350D02*
Y303812D01*
X289200Y297376D02*
Y297892D01*
Y298760D02*
Y300104D01*
X289300Y299210D02*
Y300012D01*
*
G04 PC Custom Flashes*
G04 Layer Name Sky_Master_v4.3_2019010 - flashes*
%LPD*%
*
*
G04 PC Circuitry*
G04 Layer Name Sky_Master_v4.3_2019010 - circuitry*
%LPD*%
*
G54D10*
X188679Y336222D02*
X192558Y334282D01*
X193613Y333693*
X194402Y333098*
X195427Y332113*
X195427D02*
X196175Y331190D01*
X196777Y330194*
X197275Y329138*
X197649Y327978*
X197813Y327315*
X197898Y326653*
X197958Y325796*
Y325084*
X197868Y324118*
X197724Y323371*
X197490Y322504*
X197186Y321688*
X196847Y320961*
X196324Y320069*
X195771Y319312*
X195229Y318709*
X194435Y317965*
X193831Y317511*
X193203Y317095*
X192388Y316620*
X191644Y316102*
X190974Y315528*
X190365Y314914*
X189682Y314066*
X189332Y313542*
X188991Y312944*
X188649Y312251*
X188397Y311588*
X188397D02*
X188209Y311013D01*
X188082Y310502*
X187944Y309776*
X187865Y309138*
X187863Y308752*
Y195152*
X187866Y194869*
X187875Y194341*
X187949Y193612*
X188066Y193063*
X188260Y192322*
X188513Y191599*
X188878Y190778*
X189264Y190067*
X189739Y189368*
X190232Y188750*
X190878Y188059*
X191702Y187364*
X192635Y186730*
X193318Y186340*
X193658Y186114*
X194098Y185811*
X194745Y185255*
X195184Y184846*
X195688Y184263*
X196155Y183669*
X196481Y183152*
X196703Y182788*
X197005Y182194*
X197333Y181432*
X197477Y181031*
X197644Y180442*
X197798Y179758*
X197905Y178998*
X197943Y178524*
X197955Y177946*
X197934Y177314*
X197842Y176516*
X197680Y175682*
X197437Y174810*
X197049Y173864*
X196670Y173117*
X196122Y172270*
X195487Y171468*
X194850Y170803*
X194231Y170276*
X193400Y169689*
X192842Y169345*
X149822Y147850*
X148638Y147250*
X147739Y146781*
X146804Y146359*
X145862Y145971*
X145120Y145694*
X144127Y145402*
X143484Y145228*
X143484D02*
X142935Y145113D01*
X142367Y145000*
X141652Y144895*
X140881Y144795*
X139995Y144729*
X139619Y144709*
X138787Y144698*
X138075Y144720*
X137489Y144757*
X136962Y144798*
X136469Y144852*
X135920Y144934*
X135427Y145018*
X134858Y145133*
X134368Y145242*
X133889Y145356*
X133350Y145513*
X132742Y145701*
X132059Y145939*
X132048Y145943D02*
G75*
G03X144231Y111917I-8235J-22143D01*
G01X144224Y111905D02*
X144461Y112326D01*
X144796Y112946*
X145090Y113538*
X145386Y114162*
X145619Y114716*
X145878Y115350*
X146106Y115972*
X146345Y116703*
X146580Y117495*
X146864Y118333*
X147118Y118990*
X147406Y119659*
X147725Y120336*
X148121Y121108*
X148753Y122136*
X149046Y122591*
X149268Y122910*
X149516Y123255*
X149918Y123786*
X150256Y124201*
X150733Y124751*
X151387Y125441*
X152201Y126214*
X152615Y126579*
X153124Y126990*
X153499Y127287*
X153961Y127617*
X154855Y128224*
X155942Y128878*
X164493Y133180*
X209503Y155689*
X214685Y158273*
X218110Y159970*
X223297Y162564*
X225081Y163256*
X226606Y163725*
X227995Y164027*
X228985Y164164*
X229870Y164265*
X230799Y164326*
X231497Y164345*
X271974*
X272936Y164324*
X273725Y164264*
X274671Y164153*
X275429Y164045*
X276082Y163918*
X276802Y163750*
X277415Y163591*
X278239Y163353*
X278991Y163074*
X279854Y162728*
X280812Y162278*
X291988Y156690*
X299956Y152692*
X305541Y149905*
X339060Y133158*
X345067Y130151*
X347429Y128951*
X348479Y128354*
X349499Y127702*
X350284Y127092*
X350996Y126531*
X351690Y125903*
X352306Y125276*
X352680Y124889*
X353275Y124201*
X354019Y123276*
X354483Y122630*
X354978Y121833*
X355576Y120795*
X355938Y120071*
X356426Y118983*
X356881Y117770*
X357203Y116690*
X357618Y115434*
X357956Y114613*
X358387Y113633*
X358386Y113635D02*
G03X372924Y146441I21328J10173D01*
G01X372939Y146446D02*
X372390Y146269D01*
X371859Y146073*
X371275Y145873*
X370721Y145692*
X370164Y145519*
X369499Y145327*
X368941Y145193*
X368353Y145062*
X367822Y144978*
X367418Y144909*
X367022Y144853*
X366603Y144801*
X366182Y144762*
X365726Y144730*
X365239Y144718*
X364601Y144700*
X364477Y144706*
X364135Y144716*
X363788Y144724*
X363402Y144743*
X363099Y144757*
X362745Y144799*
X362347Y144836*
X361954Y144877*
X361344Y144975*
X360837Y145071*
X360337Y145186*
X359872Y145286*
X359392Y145411*
X358829Y145573*
X358273Y145749*
X357558Y146004*
X356814Y146310*
X356236Y146564*
X355131Y147135*
X353749Y147847*
X312390Y168498*
X310360Y169536*
X309507Y170113*
X308669Y170805*
X307825Y171722*
X307162Y172613*
X306525Y173777*
X306176Y174589*
X305789Y175941*
X305649Y176781*
X305595Y177511*
Y177523*
X305580Y178152*
X305618Y178926*
X305694Y179427*
X305824Y180159*
X305948Y180632*
X306112Y181165*
X306112D02*
X306322Y181717D01*
X306541Y182234*
X306912Y182916*
X307416Y183719*
X307952Y184394*
X308517Y185010*
X308951Y185425*
X308951D02*
X309462Y185825D01*
X309884Y186126*
X310601Y186569*
X311204Y186940*
X311546Y187175*
X311902Y187422*
X312247Y187711*
X312609Y188031*
X313044Y188478*
X313332Y188780*
X313637Y189176*
X313957Y189614*
X314379Y190245*
X314798Y191089*
X315020Y191584*
X315327Y192418*
X315668Y193661*
Y308671*
X315653Y309382*
X315572Y309903*
X315344Y310970*
X315140Y311618*
X314816Y312403*
X314233Y313507*
X313862Y314024*
X313509Y314506*
X313078Y314998*
X312663Y315417*
X312123Y315899*
X311657Y316276*
X311235Y316549*
X310448Y317031*
X309827Y317415*
X309354Y317758*
X308885Y318154*
X308463Y318547*
X308060Y318976*
X307641Y319483*
X307229Y320038*
X306801Y320758*
X306417Y321532*
X306150Y322195*
X305912Y322950*
X305738Y323734*
X305605Y324717*
X305582Y325786*
X305582D02*
X305621Y326462D01*
X305671Y326906*
X305817Y327658*
X305922Y328105*
X306176Y328923*
X306487Y329634*
X306870Y330395*
X307248Y330992*
X307641Y331572*
X308196Y332207*
X308707Y332724*
X309351Y333269*
X309903Y333678*
X310379Y333973*
X310962Y334297*
X311651Y334636*
X312418Y335026*
X313414Y335521*
X317082Y337361*
X322011Y339849*
X355289Y356475*
X355958Y356806*
X356739Y357181*
X357428Y357457*
X358030Y357678*
X358449Y357820*
X359020Y358004*
X359543Y358144*
X360039Y358272*
X360488Y358376*
X360922Y358461*
X361410Y358551*
X361951Y358632*
X362519Y358703*
X363065Y358756*
X363537Y358781*
X364125Y358810*
X364725Y358815*
X365266Y358800*
X365827Y358778*
X366361Y358731*
X366946Y358670*
X367497Y358604*
X367933Y358528*
X368516Y358411*
X368516D02*
X369111Y358291D01*
X369573Y358171*
X369968Y358063*
X370408Y357933*
X371011Y357732*
X371473Y357571*
X371488Y357566D02*
G03X357058Y386380I8235J22144D01*
G01Y386378D02*
X356946Y386009D01*
X356732Y385377*
X356531Y384823*
X356268Y384195*
X356042Y383700*
X355718Y383002*
X355312Y382248*
X354893Y381540*
X354511Y380960*
X354041Y380282*
X353416Y379445*
X352268Y378185*
X351388Y377350*
X350835Y376868*
X350328Y376451*
X349752Y376025*
X349101Y375559*
X348267Y375048*
X347264Y374481*
X307358Y354502*
X282872Y342240*
X280931Y341243*
X279711Y340711*
X278359Y340179*
X276445Y339655*
X274966Y339389*
X273710Y339240*
X272911Y339189*
X272378Y339236*
X271715Y339335*
X270947Y339500*
X270367Y339665*
X269739Y339909*
X269355Y340055*
X268800Y340334*
X268476Y340512*
X268134Y340724*
X267652Y341048*
X267163Y341422*
X266589Y341930*
X266142Y342390*
X266142D02*
X265672Y342964D01*
X265349Y343376*
X265022Y343884*
X264711Y344413*
X264445Y344965*
X264258Y345409*
X263868Y346542*
X263696Y347457*
X263602Y348223*
X263580Y348560*
X263577Y349214*
X263567Y349820*
X263564Y349858*
X263554Y350264*
X263485Y350514*
X263329Y350882*
X263082Y351228*
X262742Y351555*
X262422Y351710*
X262111Y351834*
X261794Y351882*
X241903*
X241573Y351853*
X241126Y351749*
X240758Y351511*
X240466Y351263*
X240177Y350848*
X239990Y350350*
X239949Y350029*
X239955Y348830*
X239937Y348495*
X239901Y347969*
X239819Y347417*
X239714Y346814*
X239530Y346135*
X239260Y345390*
X238981Y344752*
X238686Y344169*
X238236Y343468*
X237756Y342815*
X237442Y342438*
X237024Y342010*
X236611Y341635*
X236215Y341293*
X235710Y340915*
X235267Y340644*
X234724Y340321*
X234002Y339971*
X233190Y339662*
X232407Y339444*
X231765Y339322*
X231117Y339223*
X230543Y339185*
X230155Y339180*
X229776Y339192*
X229408Y339206*
X229136Y339232*
X228756Y339282*
X228293Y339354*
X228043Y339405*
X227793Y339458*
X227136Y339656*
X226949Y339707*
X226439Y339830*
X225747Y340023*
X225141Y340214*
X224507Y340436*
X223780Y340737*
X223232Y340966*
X222676Y341232*
X222131Y341511*
X215892Y344617*
X211322Y346930*
X205505Y349894*
X192979Y356091*
X161290Y371950*
X156288Y374447*
X155263Y375040*
X154744Y375360*
X154000Y375863*
X153529Y376206*
X153203Y376452*
X152624Y376923*
X151825Y377635*
X150256Y379309*
X149816Y379857*
X149437Y380349*
X149013Y380966*
X148407Y381929*
X148103Y382465*
X147814Y383006*
X147110Y384552*
X146921Y385032*
X146921D02*
X146048Y387701D01*
X145360Y389422*
X144642Y390846*
X143690Y392493*
X142916Y393611*
X141899Y394923*
X141339Y395542*
X140499Y396435*
X140015Y396896*
X139436Y397422*
X138779Y397973*
X138052Y398554*
X137661Y398848*
X137319Y399089*
X136969Y399324*
X136642Y399543*
X136651Y399537D02*
G03X132055Y357570I-12829J-19830D01*
G01X132059Y357571D02*
X132248Y357628D01*
X132674Y357787*
X133304Y357986*
X133864Y358146*
X134238Y358236*
X134617Y358331*
X134956Y358400*
X135342Y358479*
X135735Y358548*
X136188Y358621*
X137049Y358720*
X137479Y358759*
X138021Y358794*
X138427Y358798*
X138930Y358809*
X139345Y358806*
X139995Y358781*
X140390Y358752*
X141678Y358620*
X142536Y358478*
X143316Y358317*
X143920Y358167*
X144792Y357917*
X145792Y357582*
X147214Y356970*
X190827Y335216*
X188679Y336222*
X188679*
X305996Y303345D02*
G03X305996I-1382J0D01*
G01X313108D02*
G03X313108I-1387J0D01*
G01X137593Y379707D02*
G03X137593I-13780J0D01*
G01X393498D02*
G03X393498I-13780J0D01*
G01X137593Y123802D02*
G03X137593I-13780J0D01*
G01X393498D02*
G03X393498I-13780J0D01*
G01X371463Y357575D02*
G03X355787Y356726I-6862J-18451D01*
G01X371463Y357575D02*
G03X355787Y356726I-6862J-18451D01*
G01X371484Y357567D02*
G03X357057Y386377I8234J22140D01*
G01X346988Y374335D02*
G03X357058Y386378I-8814J17601D01*
G01X346983Y374332D02*
X280905Y341266D01*
X272886Y339201D02*
G03X280910Y341269I-790J19669D01*
G01X263577Y349028D02*
G03X272870Y339200I9842J-0D01*
G01X263577Y349027D02*
X263578Y349912D01*
G03X261610Y351884I-1968J3*
G01X241923*
G03X239955Y349915I0J-1969*
G01Y349027*
X226989Y339694D02*
G03X239955Y349027I3123J9333D01*
G01X222621Y341268D02*
G03X226974Y339697I8815J17602D01*
G01X222626Y341266D02*
X156549Y374332D01*
X146474Y386378D02*
G03X156544Y374335I18884J5558D01*
G01X146474Y386377D02*
G03X132047Y357567I-22661J-6670D01*
G01X147744Y356726D02*
G03X132068Y357575I-8814J-17602D01*
G01X147739Y356728D02*
X192514Y334323D01*
X192896Y316921D02*
G03X192516Y334321I-4787J8600D01*
G01X192894Y316920D02*
G03X187843Y308595I4787J-8600D01*
G01X187842Y308590D02*
Y194920D01*
X187843Y194915D02*
G03X192895Y186590I9838J275D01*
G01X192516Y169189D02*
G03X192896Y186589I-4407J8800D01*
G01X192514Y169187D02*
X147739Y146781D01*
X132068Y145935D02*
G03X147744Y146784I6862J18451D01*
G01X132047Y145943D02*
G03X146474Y117133I-8234J-22140D01*
G01X156544Y129175D02*
G03X146474Y117132I8814J-17601D01*
G01X156549Y129178D02*
X222626Y162244D01*
X231436Y164325D02*
G03X222621Y162241I-0J-19685D01*
G01X231436Y164325D02*
X272096D01*
X280910Y162241D02*
G03X272096Y164325I-8814J-17601D01*
G01X280905Y162244D02*
X346983Y129178D01*
X357058Y117132D02*
G03X346988Y129175I-18884J-5558D01*
G01X357057Y117133D02*
G03X371484Y145943I22661J6670D01*
G01X355787Y146784D02*
G03X371463Y145935I8814J17602D01*
G01X355792Y146781D02*
X311018Y169187D01*
X310635Y186589D02*
G03X311015Y169189I4787J-8600D01*
G01X310637Y186590D02*
G03X315689Y194915I-4787J8600D01*
G01Y194920D02*
X315689D01*
Y308590*
Y308594D02*
G03X310637Y316920I-9839J-274D01*
G01X311015Y334321D02*
G03X310636Y316921I4407J-8800D01*
G01X311018Y334323D02*
X355792Y356728D01*
G54D11*
X299438Y272555D02*
X299620Y273055D01*
X299984Y273555*
X300348Y273805*
X301075*
X301438Y273555*
X301802Y273055*
X301984Y272555*
X302166Y271805*
Y270555*
X301984Y269805*
X301802Y269305*
X301438Y268805*
X301075Y268555*
X300348*
X299984Y268805*
X299620Y269305*
X299438Y269805*
Y270555*
X300348D02*
X299438D01*
X297802Y273805D02*
Y268555D01*
Y273805D02*
X295257Y268555D01*
Y273805D02*
Y268555D01*
X293620Y273805D02*
Y268555D01*
Y273805D02*
X292348D01*
X291802Y273555*
X291438Y273055*
X291257Y272555*
X291075Y271805*
Y270555*
X291257Y269805*
X291438Y269305*
X291802Y268805*
X292348Y268555*
X293620*
X299438Y264555D02*
X299620Y265055D01*
X299984Y265555*
X300348Y265805*
X301075*
X301438Y265555*
X301802Y265055*
X301984Y264555*
X302166Y263805*
Y262555*
X301984Y261805*
X301802Y261305*
X301438Y260805*
X301075Y260555*
X300348*
X299984Y260805*
X299620Y261305*
X299438Y261805*
X295257Y265055D02*
X295620Y265555D01*
X296166Y265805*
X296893*
X297438Y265555*
X297802Y265055*
Y264555*
X297620Y264055*
X297438Y263805*
X297075Y263555*
X295984Y263055*
X295620Y262805*
X295438Y262555*
X295257Y262055*
Y261305*
X295620Y260805*
X296166Y260555*
X296893*
X297438Y260805*
X297802Y261305*
X292529Y265805D02*
X293075Y265555D01*
X293438Y264805*
X293620Y263555*
Y262805*
X293438Y261555*
X293075Y260805*
X292529Y260555*
X292166*
X291620Y260805*
X291257Y261555*
X291075Y262805*
Y263555*
X291257Y264805*
X291620Y265555*
X292166Y265805*
X292529*
X286166Y266805D02*
X289438Y258805D01*
X284529Y265805D02*
Y260555D01*
Y265805D02*
X282893D01*
X282348Y265555*
X282166Y265305*
X281984Y264805*
Y264055*
X282166Y263555*
X282348Y263305*
X282893Y263055*
X284529*
X277620Y264555D02*
X277802Y265055D01*
X278166Y265555*
X278529Y265805*
X279257*
X279620Y265555*
X279984Y265055*
X280166Y264555*
X280348Y263805*
Y262555*
X280166Y261805*
X279984Y261305*
X279620Y260805*
X279257Y260555*
X278529*
X278166Y260805*
X277802Y261305*
X277620Y261805*
X275984Y264805D02*
X275620Y265055D01*
X275075Y265805*
Y260555*
X271075Y265805D02*
X272893D01*
X273075Y263555*
X272893Y263805*
X272348Y264055*
X271802*
X271257Y263805*
X270893Y263305*
X270711Y262555*
X270893Y262055*
X271075Y261305*
X271438Y260805*
X271984Y260555*
X272529*
X273075Y260805*
X273257Y261055*
X273438Y261555*
X299220Y257455D02*
X299584Y257955D01*
X300129Y258205*
X300857*
X301402Y257955*
X301766Y257455*
Y256955*
X301584Y256455*
X301402Y256205*
X301038Y255955*
X299948Y255455*
X299584Y255205*
X299402Y254955*
X299220Y254455*
Y253705*
X299584Y253205*
X300129Y252955*
X300857*
X301402Y253205*
X301766Y253705*
X297584Y258205D02*
Y252955D01*
Y258205D02*
X296311D01*
X295766Y257955*
X295402Y257455*
X295220Y256955*
X295038Y256205*
Y254955*
X295220Y254205*
X295402Y253705*
X295766Y253205*
X296311Y252955*
X297584*
X291948Y258205D02*
X293402Y252955D01*
X291948Y258205D02*
X290493Y252955D01*
X292857Y254705D02*
X291038D01*
X285584Y259205D02*
X288857Y251205D01*
X283948Y258205D02*
Y252955D01*
Y258205D02*
X282311D01*
X281766Y257955*
X281584Y257705*
X281402Y257205*
Y256455*
X281584Y255955*
X281766Y255705*
X282311Y255455*
X283948*
X279766Y258205D02*
Y252955D01*
Y258205D02*
X278129D01*
X277584Y257955*
X277402Y257705*
X277220Y257205*
Y256705*
X277402Y256205*
X277584Y255955*
X278129Y255705*
X279766D02*
X278129D01*
X277584Y255455*
X277402Y255205*
X277220Y254705*
Y253955*
X277402Y253455*
X277584Y253205*
X278129Y252955*
X279766*
X273766Y258205D02*
X275584Y254705D01*
X272857*
X273766Y258205D02*
Y252955D01*
X298820Y249855D02*
X299184Y250355D01*
X299729Y250605*
X300457*
X301002Y250355*
X301366Y249855*
Y249355*
X301184Y248855*
X301002Y248605*
X300638Y248355*
X299548Y247855*
X299184Y247605*
X299002Y247355*
X298820Y246855*
Y246105*
X299184Y245605*
X299729Y245355*
X300457*
X301002Y245605*
X301366Y246105*
X294457Y249355D02*
X294638Y249855D01*
X295002Y250355*
X295366Y250605*
X296093*
X296457Y250355*
X296820Y249855*
X297002Y249355*
X297184Y248605*
Y247355*
X297002Y246605*
X296820Y246105*
X296457Y245605*
X296093Y245355*
X295366*
X295002Y245605*
X294638Y246105*
X294457Y246605*
X292820Y250605D02*
Y245355D01*
X290638*
X285729Y251605D02*
X289002Y243605D01*
X284093Y250605D02*
Y245355D01*
Y250605D02*
X282457D01*
X281911Y250355*
X281729Y250105*
X281548Y249605*
Y248855*
X281729Y248355*
X281911Y248105*
X282457Y247855*
X284093*
X279911Y250605D02*
Y245355D01*
Y250605D02*
X278275D01*
X277729Y250355*
X277548Y250105*
X277366Y249605*
Y249105*
X277548Y248605*
X277729Y248355*
X278275Y248105*
X279911D02*
X278275D01*
X277729Y247855*
X277548Y247605*
X277366Y247105*
Y246355*
X277548Y245855*
X277729Y245605*
X278275Y245355*
X279911*
X273366Y250605D02*
X275184D01*
X275366Y248355*
X275184Y248605*
X274638Y248855*
X274093*
X273548Y248605*
X273184Y248105*
X273002Y247355*
X273184Y246855*
X273366Y246105*
X273729Y245605*
X274275Y245355*
X274820*
X275366Y245605*
X275548Y245855*
X275729Y246355*
X300493Y234605D02*
Y229355D01*
X301766Y234605D02*
X299220D01*
X297584D02*
X295038Y229355D01*
Y234605D02*
X297584Y229355D01*
X293402Y233605D02*
X293038Y233855D01*
X292493Y234605*
Y229355*
X287584Y235605D02*
X290857Y227605D01*
X285948Y234605D02*
Y229355D01*
Y234605D02*
X284311D01*
X283766Y234355*
X283584Y234105*
X283402Y233605*
Y232855*
X283584Y232355*
X283766Y232105*
X284311Y231855*
X285948*
X280311Y234605D02*
X281766Y229355D01*
X280311Y234605D02*
X278857Y229355D01*
X281220Y231105D02*
X279402D01*
X277220Y233605D02*
X276857Y233855D01*
X276311Y234605*
Y229355*
X272311Y234605D02*
X274129D01*
X274311Y232355*
X274129Y232605*
X273584Y232855*
X273038*
X272493Y232605*
X272129Y232105*
X271948Y231355*
X272129Y230855*
X272311Y230105*
X272675Y229605*
X273220Y229355*
X273766*
X274311Y229605*
X274493Y229855*
X274675Y230355*
X300966Y243005D02*
Y237755D01*
Y243005D02*
X299329D01*
X298784Y242755*
X298602Y242505*
X298420Y242005*
Y241505*
X298602Y241005*
X298784Y240755*
X299329Y240505*
X300966*
X299693D02*
X298420Y237755D01*
X296784Y243005D02*
X294238Y237755D01*
Y243005D02*
X296784Y237755D01*
X292602Y242005D02*
X292238Y242255D01*
X291693Y243005*
Y237755*
X286784Y244005D02*
X290057Y236005D01*
X285148Y243005D02*
Y237755D01*
Y243005D02*
X283511D01*
X282966Y242755*
X282784Y242505*
X282602Y242005*
Y241255*
X282784Y240755*
X282966Y240505*
X283511Y240255*
X285148*
X280966Y243005D02*
Y237755D01*
Y243005D02*
X279329D01*
X278784Y242755*
X278602Y242505*
X278420Y242005*
Y241505*
X278602Y241005*
X278784Y240755*
X279329Y240505*
X280966D02*
X279329D01*
X278784Y240255*
X278602Y240005*
X278420Y239505*
Y238755*
X278602Y238255*
X278784Y238005*
X279329Y237755*
X280966*
X276420Y243005D02*
X274420D01*
X275511Y241005*
X274966*
X274602Y240755*
X274420Y240505*
X274238Y239755*
Y239255*
X274420Y238505*
X274784Y238005*
X275329Y237755*
X275875*
X276420Y238005*
X276602Y238255*
X276784Y238755*
X300966Y225805D02*
X299511Y220555D01*
X298057Y225805D02*
X299511Y220555D01*
X296420Y225805D02*
Y222055D01*
X296238Y221305*
X295875Y220805*
X295329Y220555*
X294966*
X294420Y220805*
X294057Y221305*
X293875Y222055*
Y225805*
X289693Y225055D02*
X290057Y225555D01*
X290602Y225805*
X291329*
X291875Y225555*
X292238Y225055*
Y224555*
X292057Y224055*
X291875Y223805*
X291511Y223555*
X290420Y223055*
X290057Y222805*
X289875Y222555*
X289693Y222055*
Y221305*
X290057Y220805*
X290602Y220555*
X291329*
X291875Y220805*
X292238Y221305*
X288057Y225805D02*
Y220555D01*
Y225805D02*
X286420D01*
X285875Y225555*
X285693Y225305*
X285511Y224805*
Y224305*
X285693Y223805*
X285875Y223555*
X286420Y223305*
X288057D02*
X286420D01*
X285875Y223055*
X285693Y222805*
X285511Y222305*
Y221555*
X285693Y221055*
X285875Y220805*
X286420Y220555*
X288057*
X300966Y217805D02*
Y212555D01*
Y217805D02*
X299329D01*
X298784Y217555*
X298602Y217305*
X298420Y216805*
Y216305*
X298602Y215805*
X298784Y215555*
X299329Y215305*
X300966D02*
X299329D01*
X298784Y215055*
X298602Y214805*
X298420Y214305*
Y213555*
X298602Y213055*
X298784Y212805*
X299329Y212555*
X300966*
X295329Y217805D02*
X296784Y212555D01*
X295329Y217805D02*
X293875Y212555D01*
X296238Y214305D02*
X294420D01*
X290966Y217805D02*
Y212555D01*
X292238Y217805D02*
X289693D01*
X209838Y272155D02*
X210020Y272655D01*
X210384Y273155*
X210748Y273405*
X211475*
X211838Y273155*
X212202Y272655*
X212384Y272155*
X212566Y271405*
Y270155*
X212384Y269405*
X212202Y268905*
X211838Y268405*
X211475Y268155*
X210748*
X210384Y268405*
X210020Y268905*
X209838Y269405*
Y270155*
X210748D02*
X209838D01*
X208202Y273405D02*
Y268155D01*
Y273405D02*
X205657Y268155D01*
Y273405D02*
Y268155D01*
X204020Y273405D02*
Y268155D01*
Y273405D02*
X202748D01*
X202202Y273155*
X201838Y272655*
X201657Y272155*
X201475Y271405*
Y270155*
X201657Y269405*
X201838Y268905*
X202202Y268405*
X202748Y268155*
X204020*
X228566Y265405D02*
X227111Y260155D01*
X225657Y265405D02*
X227111Y260155D01*
X221293Y264155D02*
X221475Y264655D01*
X221838Y265155*
X222202Y265405*
X222929*
X223293Y265155*
X223657Y264655*
X223838Y264155*
X224020Y263405*
Y262155*
X223838Y261405*
X223657Y260905*
X223293Y260405*
X222929Y260155*
X222202*
X221838Y260405*
X221475Y260905*
X221293Y261405*
X216929Y264155D02*
X217111Y264655D01*
X217475Y265155*
X217838Y265405*
X218566*
X218929Y265155*
X219293Y264655*
X219475Y264155*
X219657Y263405*
Y262155*
X219475Y261405*
X219293Y260905*
X218929Y260405*
X218566Y260155*
X217838*
X217475Y260405*
X217111Y260905*
X216929Y261405*
X215293Y259155D02*
X211475D01*
X210020Y265405D02*
X208020D01*
X209111Y263405*
X208566*
X208202Y263155*
X208020Y262905*
X207838Y262155*
Y261655*
X208020Y260905*
X208384Y260405*
X208929Y260155*
X209475*
X210020Y260405*
X210202Y260655*
X210384Y261155*
X206020Y260655D02*
X206202Y260405D01*
X206020Y260155*
X205838Y260405*
X206020Y260655*
X203111Y265405D02*
X203657Y265155D01*
X204020Y264405*
X204202Y263155*
Y262405*
X204020Y261155*
X203657Y260405*
X203111Y260155*
X202748*
X202202Y260405*
X201838Y261155*
X201657Y262405*
Y263155*
X201838Y264405*
X202202Y265155*
X202748Y265405*
X203111*
X225838Y256155D02*
X226020Y256655D01*
X226384Y257155*
X226748Y257405*
X227475*
X227838Y257155*
X228202Y256655*
X228384Y256155*
X228566Y255405*
Y254155*
X228384Y253405*
X228202Y252905*
X227838Y252405*
X227475Y252155*
X226748*
X226384Y252405*
X226020Y252905*
X225838Y253405*
X221657Y256655D02*
X222020Y257155D01*
X222566Y257405*
X223293*
X223838Y257155*
X224202Y256655*
Y256155*
X224020Y255655*
X223838Y255405*
X223475Y255155*
X222384Y254655*
X222020Y254405*
X221838Y254155*
X221657Y253655*
Y252905*
X222020Y252405*
X222566Y252155*
X223293*
X223838Y252405*
X224202Y252905*
X220020Y256405D02*
X219657Y256655D01*
X219111Y257405*
Y252155*
X214202Y258405D02*
X217475Y250405D01*
X212566Y257405D02*
Y252155D01*
Y257405D02*
X210929D01*
X210384Y257155*
X210202Y256905*
X210020Y256405*
Y255655*
X210202Y255155*
X210384Y254905*
X210929Y254655*
X212566*
X208384Y257405D02*
Y252155D01*
Y257405D02*
X206748D01*
X206202Y257155*
X206020Y256905*
X205838Y256405*
Y255905*
X206020Y255405*
X206202Y255155*
X206748Y254905*
X208384D02*
X206748D01*
X206202Y254655*
X206020Y254405*
X205838Y253905*
Y253155*
X206020Y252655*
X206202Y252405*
X206748Y252155*
X208384*
X203111Y257405D02*
X203657Y257155D01*
X204020Y256405*
X204202Y255155*
Y254405*
X204020Y253155*
X203657Y252405*
X203111Y252155*
X202748*
X202202Y252405*
X201838Y253155*
X201657Y254405*
Y255155*
X201838Y256405*
X202202Y257155*
X202748Y257405*
X203111*
X226238Y248155D02*
X226420Y248655D01*
X226784Y249155*
X227148Y249405*
X227875*
X228238Y249155*
X228602Y248655*
X228784Y248155*
X228966Y247405*
Y246155*
X228784Y245405*
X228602Y244905*
X228238Y244405*
X227875Y244155*
X227148*
X226784Y244405*
X226420Y244905*
X226238Y245405*
X222057Y248655D02*
X222420Y249155D01*
X222966Y249405*
X223693*
X224238Y249155*
X224602Y248655*
Y248155*
X224420Y247655*
X224238Y247405*
X223875Y247155*
X222784Y246655*
X222420Y246405*
X222238Y246155*
X222057Y245655*
Y244905*
X222420Y244405*
X222966Y244155*
X223693*
X224238Y244405*
X224602Y244905*
X220238Y248155D02*
Y248405D01*
X220057Y248905*
X219875Y249155*
X219511Y249405*
X218784*
X218420Y249155*
X218238Y248905*
X218057Y248405*
Y247905*
X218238Y247405*
X218602Y246655*
X220420Y244155*
X217875*
X212966Y250405D02*
X216238Y242405D01*
X211329Y249405D02*
Y244155D01*
Y249405D02*
X209693D01*
X209148Y249155*
X208966Y248905*
X208784Y248405*
Y247655*
X208966Y247155*
X209148Y246905*
X209693Y246655*
X211329*
X207148Y249405D02*
Y244155D01*
Y249405D02*
X205511D01*
X204966Y249155*
X204784Y248905*
X204602Y248405*
Y247905*
X204784Y247405*
X204966Y247155*
X205511Y246905*
X207148D02*
X205511D01*
X204966Y246655*
X204784Y246405*
X204602Y245905*
Y245155*
X204784Y244655*
X204966Y244405*
X205511Y244155*
X207148*
X202966Y248405D02*
X202602Y248655D01*
X202057Y249405*
Y244155*
X227438Y240955D02*
X227620Y241455D01*
X227984Y241955*
X228348Y242205*
X229075*
X229438Y241955*
X229802Y241455*
X229984Y240955*
X230166Y240205*
Y238955*
X229984Y238205*
X229802Y237705*
X229438Y237205*
X229075Y236955*
X228348*
X227984Y237205*
X227620Y237705*
X227438Y238205*
X223257Y241455D02*
X223620Y241955D01*
X224166Y242205*
X224893*
X225438Y241955*
X225802Y241455*
Y240955*
X225620Y240455*
X225438Y240205*
X225075Y239955*
X223984Y239455*
X223620Y239205*
X223438Y238955*
X223257Y238455*
Y237705*
X223620Y237205*
X224166Y236955*
X224893*
X225438Y237205*
X225802Y237705*
X221257Y242205D02*
X219257D01*
X220348Y240205*
X219802*
X219438Y239955*
X219257Y239705*
X219075Y238955*
Y238455*
X219257Y237705*
X219620Y237205*
X220166Y236955*
X220711*
X221257Y237205*
X221438Y237455*
X221620Y237955*
X214166Y243205D02*
X217438Y235205D01*
X212529Y242205D02*
Y236955D01*
Y242205D02*
X210893D01*
X210348Y241955*
X210166Y241705*
X209984Y241205*
Y240455*
X210166Y239955*
X210348Y239705*
X210893Y239455*
X212529*
X206893Y242205D02*
X208348Y236955D01*
X206893Y242205D02*
X205438Y236955D01*
X207802Y238705D02*
X205984D01*
X202893Y242205D02*
X203438Y241955D01*
X203620Y241455*
Y240955*
X203438Y240455*
X203075Y240205*
X202348Y239955*
X201802Y239705*
X201438Y239205*
X201257Y238705*
Y237955*
X201438Y237455*
X201620Y237205*
X202166Y236955*
X202893*
X203438Y237205*
X203620Y237455*
X203802Y237955*
Y238705*
X203620Y239205*
X203257Y239705*
X202711Y239955*
X201984Y240205*
X201620Y240455*
X201438Y240955*
Y241455*
X201620Y241955*
X202166Y242205*
X202893*
X234566Y234205D02*
Y228955D01*
Y234205D02*
X233111Y228955D01*
X231657Y234205D02*
X233111Y228955D01*
X231657Y234205D02*
Y228955D01*
X228929Y234205D02*
X229293Y233955D01*
X229657Y233455*
X229838Y232955*
X230020Y232205*
Y230955*
X229838Y230205*
X229657Y229705*
X229293Y229205*
X228929Y228955*
X228202*
X227838Y229205*
X227475Y229705*
X227293Y230205*
X227111Y230955*
Y232205*
X227293Y232955*
X227475Y233455*
X227838Y233955*
X228202Y234205*
X228929*
X222929Y233455D02*
X223293Y233955D01*
X223838Y234205*
X224566*
X225111Y233955*
X225475Y233455*
Y232955*
X225293Y232455*
X225111Y232205*
X224748Y231955*
X223657Y231455*
X223293Y231205*
X223111Y230955*
X222929Y230455*
Y229705*
X223293Y229205*
X223838Y228955*
X224566*
X225111Y229205*
X225475Y229705*
X221293Y234205D02*
Y228955D01*
X216384Y235205D02*
X219657Y227205D01*
X214748Y234205D02*
Y228955D01*
Y234205D02*
X213111D01*
X212566Y233955*
X212384Y233705*
X212202Y233205*
Y232455*
X212384Y231955*
X212566Y231705*
X213111Y231455*
X214748*
X210566Y234205D02*
Y228955D01*
Y234205D02*
X208929D01*
X208384Y233955*
X208202Y233705*
X208020Y233205*
Y232705*
X208202Y232205*
X208384Y231955*
X208929Y231705*
X210566D02*
X208929D01*
X208384Y231455*
X208202Y231205*
X208020Y230705*
Y229955*
X208202Y229455*
X208384Y229205*
X208929Y228955*
X210566*
X206384Y233205D02*
X206020Y233455D01*
X205475Y234205*
Y228955*
X201475Y234205D02*
X203293D01*
X203475Y231955*
X203293Y232205*
X202748Y232455*
X202202*
X201657Y232205*
X201293Y231705*
X201111Y230955*
X201293Y230455*
X201475Y229705*
X201838Y229205*
X202384Y228955*
X202929*
X203475Y229205*
X203657Y229455*
X203838Y229955*
X234566Y225405D02*
Y220155D01*
Y225405D02*
X233111Y220155D01*
X231657Y225405D02*
X233111Y220155D01*
X231657Y225405D02*
Y220155D01*
X230020Y225405D02*
Y220155D01*
X225838Y224655D02*
X226202Y225155D01*
X226748Y225405*
X227475*
X228020Y225155*
X228384Y224655*
Y224155*
X228202Y223655*
X228020Y223405*
X227657Y223155*
X226566Y222655*
X226202Y222405*
X226020Y222155*
X225838Y221655*
Y220905*
X226202Y220405*
X226748Y220155*
X227475*
X228020Y220405*
X228384Y220905*
X223111Y225405D02*
X223475Y225155D01*
X223838Y224655*
X224020Y224155*
X224202Y223405*
Y222155*
X224020Y221405*
X223838Y220905*
X223475Y220405*
X223111Y220155*
X222384*
X222020Y220405*
X221657Y220905*
X221475Y221405*
X221293Y222155*
Y223405*
X221475Y224155*
X221657Y224655*
X222020Y225155*
X222384Y225405*
X223111*
X216384Y226405D02*
X219657Y218405D01*
X214748Y225405D02*
Y220155D01*
Y225405D02*
X213111D01*
X212566Y225155*
X212384Y224905*
X212202Y224405*
Y223655*
X212384Y223155*
X212566Y222905*
X213111Y222655*
X214748*
X210566Y225405D02*
Y220155D01*
Y225405D02*
X208929D01*
X208384Y225155*
X208202Y224905*
X208020Y224405*
Y223905*
X208202Y223405*
X208384Y223155*
X208929Y222905*
X210566D02*
X208929D01*
X208384Y222655*
X208202Y222405*
X208020Y221905*
Y221155*
X208202Y220655*
X208384Y220405*
X208929Y220155*
X210566*
X206384Y224405D02*
X206020Y224655D01*
X205475Y225405*
Y220155*
X202020Y225405D02*
X203838Y221905D01*
X201111*
X202020Y225405D02*
Y220155D01*
X229620Y216655D02*
X229984Y217155D01*
X230529Y217405*
X231257*
X231802Y217155*
X232166Y216655*
Y216155*
X231984Y215655*
X231802Y215405*
X231438Y215155*
X230348Y214655*
X229984Y214405*
X229802Y214155*
X229620Y213655*
Y212905*
X229984Y212405*
X230529Y212155*
X231257*
X231802Y212405*
X232166Y212905*
X225257Y216155D02*
X225438Y216655D01*
X225802Y217155*
X226166Y217405*
X226893*
X227257Y217155*
X227620Y216655*
X227802Y216155*
X227984Y215405*
Y214155*
X227802Y213405*
X227620Y212905*
X227257Y212405*
X226893Y212155*
X226166*
X225802Y212405*
X225438Y212905*
X225257Y213405*
X223620Y217405D02*
Y212155D01*
X221075Y217405D02*
X223620Y213905D01*
X222711Y215155D02*
X221075Y212155D01*
X216166Y218405D02*
X219438Y210405D01*
X214529Y217405D02*
Y212155D01*
Y217405D02*
X212893D01*
X212348Y217155*
X212166Y216905*
X211984Y216405*
Y215655*
X212166Y215155*
X212348Y214905*
X212893Y214655*
X214529*
X210348Y217405D02*
Y212155D01*
Y217405D02*
X208711D01*
X208166Y217155*
X207984Y216905*
X207802Y216405*
Y215905*
X207984Y215405*
X208166Y215155*
X208711Y214905*
X210348D02*
X208711D01*
X208166Y214655*
X207984Y214405*
X207802Y213905*
Y213155*
X207984Y212655*
X208166Y212405*
X208711Y212155*
X210348*
X206166Y216405D02*
X205802Y216655D01*
X205257Y217405*
Y212155*
X203257Y217405D02*
X201257D01*
X202348Y215405*
X201802*
X201438Y215155*
X201257Y214905*
X201075Y214155*
Y213655*
X201257Y212905*
X201620Y212405*
X202166Y212155*
X202711*
X203257Y212405*
X203438Y212655*
X203620Y213155*
G54D57*
X218566Y293142D02*
X217884Y290955D01*
X217202Y293142D02*
X217884Y290955D01*
X215043Y294236D02*
X216179Y292049D01*
X214475*
X215043Y294236D02*
Y290955D01*
X213338Y291267D02*
X213452Y291111D01*
X213338Y290955*
X213225Y291111*
X213338Y291267*
X211520Y294236D02*
X211861Y294080D01*
X212088Y293611*
X212202Y292830*
Y292361*
X212088Y291580*
X211861Y291111*
X211520Y290955*
X211293*
X210952Y291111*
X210725Y291580*
X210611Y292361*
Y292830*
X210725Y293611*
X210952Y294080*
X211293Y294236*
X211520*
G54D60*
X294948Y176937D02*
X296362Y178351D01*
Y181887*
X311140Y167108*
X298413Y154380*
X283634Y169159*
X287170*
X288584Y170573*
X308383Y164350D02*
X305484Y167250D01*
X298342Y160108*
X301241Y157209*
X286984Y332137D02*
X285570Y333551D01*
X282034*
X296813Y348330*
X309540Y335602*
X294762Y320823*
Y324359*
X293348Y325773*
X299570Y345572D02*
X296671Y342673D01*
X303813Y335531*
X306712Y338430*
X215748Y171373D02*
X217162Y169959D01*
X220697*
X205919Y155180*
X193191Y167908*
X207970Y182687*
Y179151*
X209384Y177737*
X203161Y157938D02*
X206060Y160837D01*
X198919Y167979*
X196019Y165080*
X209384Y326173D02*
X207970Y324759D01*
Y321223*
X193191Y336002*
X205919Y348730*
X220697Y333951*
X217162*
X215748Y332537*
X195949Y338759D02*
X198848Y335860D01*
X205990Y343002*
X203090Y345901*
G74*
X0Y0D02*
M02*
